<mxfile host="app.diagrams.net" agent="Mozilla/5.0 (Windows NT 10.0; Win64; x64) AppleWebKit/537.36 (KHTML, like Gecko) Chrome/129.0.0.0 Safari/537.36" version="24.8.2">
  <diagram name="第 1 页" id="AmN5yXuM1sS8lPc8URig">
    <mxGraphModel dx="1420" dy="724" grid="1" gridSize="10" guides="1" tooltips="1" connect="1" arrows="1" fold="1" page="1" pageScale="1" pageWidth="827" pageHeight="1169" math="0" shadow="0">
      <root>
        <mxCell id="0" />
        <mxCell id="1" parent="0" />
        <mxCell id="JVQxi2c_4xbzTbUvVrrJ-3" value="" style="shape=image;verticalLabelPosition=bottom;labelBackgroundColor=default;verticalAlign=top;aspect=fixed;imageAspect=0;image=data:image/png,iVBORw0KGgoAAAANSUhEUgAAAIMAAABuCAIAAACLJTdtAAAgAElEQVR4AaS7d1iUV/73nz+e3Zio9N6ZXul9eh/KML0XGHrvIAwdAemggCCKBey9NzpiF7FFpauJ2WQ32c3GDgz+rnuIxmST7z7f33Ndr+tcB5i/7te8P59zzn347OW7Zy/fPXvx9unveLX49He8Xnr2kZdLT17qf8Or5ae/on/yWj/3Z7zSz71cevpi6esX+qcv9PMvlude6OdfLj9/sfT9v97+/fuf/j719Otj58bq23uPXxy78dXMzYfTtx7O3Xgwf+3us9N991Oym1CeDHN7uKkt2Mjc8Yu1Vl+aWK0yNv+Lscn/MTU1cXFy9kC7Eb3dST6oIHdXT5gjCmwPB9lBQTYgkJWTi4WDk7mNo7mVk5mlk6mFg6mFvYm5nbGZtZGZpZGZ5VpTi7WmZiZm5qbmZh8xMTP9FCNTk7X/I0Ym5sYAJsamRsamRiZmxsamxsYmZiamlhaWjs4Qfy9ylCi2NW7d8eTi4cTi4cSSgfiSC5/9uYknrxZ/w+ulpx95uTT/Uv8bXi0/+RX9/J9peK2fA0zon7xYfvpi2aBhee5n/fzPS1//e+H7f/z8/ZNvv7l579HW3hMdO48OXrs3/mju1qOZGw9mbj18emViftf+Yb4sxw7kZ2ILMbEFrbVw/NLY+ktjy1UmFn8xNllta+2ARcEDvbEEbzTOA+yNcMCA7BGudlBXG5CrtaurpaOzub2j2R+ZMDaz+iDD/P/RhLGpuYmphYmpqYmZ8QpGJkaAE2MLK2tnGIZEDE1TpmxLLDyTWnYpqfRSfMlg3EcTKz4+GZ+8Wpz/Ha+Xnnzk5dLcS+CB/sqr5flPmHuzPPtnvF6effl+7uf3s5/w5Kelb354/d33P/94b2rm8Kn+hrbdx85fvfXwya1Hc7cn564/mBl/9Kxv7KuSqm6vQJGxNdrIBrTWynm1uf2XpjarjC2/MLMwsrGxQ8KQgX4YcgAy0A3sjbRHu9ognG0gztauLlYuLhZOzub2Tqa2DqbWjuZWzp9mwsTcxtjcyth8RcbvTXwMx8rE2Mz0d5kwMjP9FBMzC1MzS1MzM8CIOZAMI+O1RsamxiYWDg4Qr8CwMEVJTO6e1NIL6RWXU8rG4kt/MfHk5TuAVwtPP+H/1cTb93N/xpv3s6/ez754P/2B2Z+Xn/576fn3L759+vdvR67d7txxaPueM6M3pyYmvx5/DJi48WD2+v25fceHFVE6FzjV2AZlZANabeG4ysTmSzObL0wsjG3tHOAwuJ8XGh+AwHmDvZGOGLAN3MkG5mwNcrJ0drJwcjJ3dDKzczS1cTC1cjSzcja1dDKxcDCxsDexsDOYsAZMAFgY/7Y6mZqbmVmYf8TE3OzT525kZmpsbraCkWFiam5pZm5lZm4OGLEAkgFYMDU3s7CFQt2ITLkoZkNC4aG08r60irEkwMRQXEnfZy8Xn7xcfPJiYf7FIsDKj4Zx/iXw46+8Wnrykf+aibfvZ3/D8uzbX5l5szz7+v306/czr5fnXi0/+ffi1z++/fbpD8/HJ6f3HLvQ0rXv/KXx8Ufztx/PT0w9uT05P/5ofvTW49pNvb4EkYmNp4kNytgG9IW5/V9NLFdZWH5pbWENdYb7ebgR/VCBHmBvlAsWao9wsYU6GQLhZOnkaG7vaG7naGbraGbtaGrlaGLpZAzgaGzlYGxlZ2xla2RpbWRptdbCaq2FhbGFhamF+a+Ym5sCv/k9JhYWJhYWxubmH1kLzM1MLCxMLS3MLC3MLc3NLc3MLE1NLMxMLK2t7KEYTyqTnyZP7kguOZVeMZBWMZJUPpRYOpAAmFh68nLpyc8LcwCLc4AMw2/+c3ylf/ory09ev/9zlufeLs++e/8rb5dnPuUdYGXmrX727fKz10vf/PT2u+9+/m7ym2+Gbt3fuOPwzqN9V+49nJiemZiamZiavT05f/3+7Mn+60nZlRAMxcTG3cwWqE5fmNv/xcJylZ2VGdTe1QeJJXm5ET0Rfii4D9IFCXGEg2zBzjYgJ2sXFwugNziYWzuYWTmYWjqYWDqstXQysnY2snYytnE0srE3srFba22z1tpqBWMrSxMrq08xtbb+FStrMytrU0srE8uVz1gaWwMYWVuutbE0srEwsjU1tjUzsbY0BzA3tTIxsTIzsbWzhXh5kxVh6uqInAOpFX3p6wfTKgZTyvqSSvuSSgc+Wyn9LxfmXi7MrTSGj83gd5M3+qcfePJmef7t+yd/yvLcu/9iYvqdfvqtfu7d8jevF//207t/PP37NxNTc/tPDzZ3Hz53+d7t6dn78/N3ABlztyfnx24/7tx1jBkeae3sbWLjZmQFX2vtssrS7q9WVqZgJ1dfFIbs60nzxRI94IAJlCsG7oyCOcDAtiDXlfWSmZ0D0CGsHEws7YHqZO1iZuNiZuNkauNoamNvamNnwMbU1sbU1tbY1upTTOyszRxsPmJqb2Nib2Vib21ib2XqYGPiZG3saGXkaLXWydKAxRonk7VOpsaOFqaOVmbAaGbiaAEs6jwJBG6CNKktvuhkZvVQZtVwRuVQanl/cmlfssHE3OuluVeLswBLwPy1fv7Nf2X5T9uAoT38moZPk/FhPvNuefKdfvKdfvat/psXC9/98PLvM99+M3TjTuv2QzsO91+6M3dnZu7e7Nyd6dm7M08mJp/2X7mjq9yI8WGY2mJMbDGrLcBfWDh+bmm3xsHBzg2BIvm40fyxFB8k3gMRgEX5Y5E+nlAPNycE3BbsCrQHe0dTO0dTOwcTG0cT4NE7mts4AGtZG/tfsLUzt7OzsDfgYGfiZGviYvcRU1d7M5DDR0xB9iZgWxOInSnUzhzuYI50MIXbmSBsjZE2BqyNkOZGCHNThJUZwtYcYWOOtDZD2lli4XBSME2Vo8nZnlZxIbtmJKt6JLNqOLW8P6WsP6Vs8DPg0X+Kfg7QsDz/dvnJp/yHm7m3QAn6M2aBTPyWhfdzH5hdej+1tDy1sDz3Zun5v9589/WP392dmd1z/MKm7YfOjz24/tWzienZOzOzE1Ozd6af3ngwu/voRXFEiiPM19QOZWyDWm0J/qu5/SpbB2sUAobzdWMEYKh+SKIXAu+BwnlgcJ6YQF+Yl4cdAmoJcjFzcjK2tzeydzB2cDBxdDJxcjZ1cjJzcjJzdrJwdbYEOVuBnK0hLjZQV1uYqx3c1RYBskSDLDAgC4yrAZCVG8TGA2oAZuMBs/IEW3q6WnmDrX0htoFQOxzMAQ+3I8LsiFA7IsSOBLYjutgRXRyIYCcizJkEcyHDnShoCCPIT6LmplbFFO/LrB4wmBjO3jCaVjGQWj6QWj702ZulOQOzb5YA3urn3urn/4g5w58+jr9/0O+AivSR2Xf6mYXl2U9ZfD/3C8uz+uVp/fL04vKTVwt/++HF97PffXvp9v1N2w/0HO2/fHf+9vTzOzNAICamZoFeffNhQ3tvIJVv7eJuZo80toGvtgH9xcpurYuLq5+3G4PgxsJh6P5IijeS5I0meqPx3jB/L2d3jAUUZAp2NgW7mIBcTCCuZjCQBQJiiYJZYWHWHjAbT7idD9LBD+Pkj3UOcHMJ9HAN8gDjPcEET2eiu9MvuK1MnEkeH3B3Irs70dydGR6ubE9ImBeU6wPn+8D43jCBF0zgARO6wwQYuBCLEHoiRT4YsS9G4oeR4LwUHHpChlzXllB5PKtmKGvDcGY1YCJ9/eAvJlYeH9A8/xufPOjft4F372c/fN+BLz6QBv2M/v2TxeW5d/qZpeX5xeW5j1YWl2f1S1PL+tmFxaf/fv3d839+d2d6/uC54Y7e432X701MfnNv5pt7c/MT0zO3J+dufjV/qv9Gck4lCI2zcMIY2YAtnJGrrBzXOLnYYjEoKsE7nO4WTMCwgjDMQDdGEJYaiCb5QYK87LxQth4IRx+Mox/WOcgTRPQBk/2gVD8ozR/M9Hdl+4FCAkChARAODsrBw7lEBI+EFJCQAjJKSEEBIwnBJ8B5eBgXB+OujDhoeBA0PAgSHgAO94Py/GHCQJQ0CKPAuWnwHlq8ZwzeIxrnFhXgEeXrHe3nFR3kHUvwiSP6xJB8Y1jERBUnp1RTvjO55lx27UhO7Wj2htGVVpFWMZRWMfzZO/3cO/3c26XZ/8rKJw0j8KDfLU9/ysL7mV9ZntEvz+mX5xeXZhYWp5f0s79DvzC9vDD/9u03//z5+7lvvx28cX/7ofO7TwxduTt9d/rpnem5u7NzgInHc9fuzXb1nuSI462c3U3tEEY2IDNH6CobRzMYHBLo7xXG8BOw3Dkkj3CSVzjZO5TszsCjKYEQii+MHoBiB6FDCG5ckpeY4SNn+yrY3kqWp4KJVTFQahpaw0BpGOgIJjqChYlgozUstIaN1rBRahZGSccqaGgZFSWlICVkhJgIFxHgIgJMiIcJ8VABDsIPggoDERIcSoHHqIlesRSfBIpPMtknmeSdhPdJCPBJCPRNwPslEf2SST6JZP/EUGpajFBXE1W5P622/49NLOhn//+wPL3wWxbfz3zK8vt5/fLckn5Wr59bma/8CLhZmFp6N7O88PWb13/7/p9/vz/99NC5y517z5y/cu/OzNf3Z+fuTE3enZkBqtPkk5EbD4uqNnsEhJrYokzsYMa2IGN7lzWOTg6eHu4saoAozF8c7MmjeAtofkKmD5fmziKg6Tg0h+grZwdGhPppQgKjObh4Li6RF5gY7pcQ5h0X4hHLxsYxsbEsTAwTHcNARzPR0WxUFBsZyYZrmAAKCkJOgkkJUAkBKsGDRTiwKAgsCgIJA10FgSB+EIQfBBPiEFIcWknAagieMWTveLJPEsknmeidFOQd7+8T7+8dH+idgPdKJHgnkINSuOycVEVJa3z1iYyakeya0T/IxEcNi8uz/wMfP/ZhMr2g/w2LyzOfotfP6fWzy8vzy8vzS0uzi4szS0uzhqDMLS7O6N/N6988f/Hz3+af/+3SzYfdB/t6T45ef/TsqyffPJifujfz1d2Z6bszc7cezh04OayMznOGB5naYUzs4AYTTlZwOJJECBRycNLwAGmwt5DuK2b6idhApWKR3NhkX1UwLo6LT+D6x4YGJIYHJof7pXJ8UkK9ktnuSUxsHB0TQ8PE0NDRNHQUDaWlobQMRAQdoaHD1HSYigaREyFSPFgSBBIHuYoCXUWBIAOuwgAXgb8rPxDMM8gQ4VAyPFqJ99ASPGMIPglEnySCd1KQT7y/r8GEVzzOKwHvk0AhpAm5+blRFd1pGy5m11zO+UMTH+vGymP6ZJzRA611dhEoNTNLegNL00sAM0v6qSX95JJ++iMrH/5l1M8uL80tL86+188vLcy8/PnBv36cePHTvbevHy++m156N6N/8+Tdi+c//uObR1Pzp/uudfScOnPp/r0n/7g//+zB/OSD+ccTM9Pjk7Njtx/VberB02Tmdu5mdhgjW6iRnauJk4uLj5cvJ5iiEhPkvCB5WIA0JEAaDIQjnOoeTPYOp+PjeUFJ4f5JYb6JoQGp4T4poZ4pbPcUFjaZjk6komIoKC0JraUARFLQkVS4mgJXUWBKCkxBgSmoYCkBLMG5igNdRQEuQgBXEYCL0B8wwfMHcwOh/CC4EDCBUeKxKpxbJM4zBu8Vh/eKDfSNDfCNC/SJDfKOxXnFEvziGbQMtbSoLHnDvty64XW1V//YBJAD/eyifm5xeW4RaK3zi8tPFvVzS/rJBWChOfVueXJheXJBP7Won1pamlxenFxenFpaery09Ghx8dHi4uOlpenl5Xn90vzSwtziwpOFt/NvX02/+tejn/5+76fv7/7wfPzrmbGHE+em7vc9nRp9Pnfl+fzVvz2b+ObZV988m75y7ereA8cOnui7cmfq0bN/PHr2t4mZ2Ttz8zdn5q8/nj/RdyMxrQKFoVvZeJpaoY3tEEZOEGssFsmk+Mm5pAgpUSXCS/l4MY8o5QVJwjy4VDcu2UfO9E/m+KaEeicFewGEuCew3BNYmHgmJp6JjmOgomkoQAMVpaUgIymICCoykgbX0GBKCkRBgcipYDERIsKDRDiQMAgkDHDl+7vy/cB8XxDfF8QDAPN9IAJfqNAPLvZHygIwShxGhXNT47AavHsEzlOL99QGekUFemmDfLRUfJyYm5UTVdqeUXc8v2kwr344t85QnWpGM6uHM6uG09cPpVUMfQYUd+CL/6mJ+UWgx04uLk++W558+34KAFAytbQ0tbw49X5xWr80pdcDLC1NLi3OLL6befdq+u2LyZf/fPSP57e/nrkyd6//0fXTX107+dW1k3fHjl3v33dzcP/48MHbwwdvDR+6Nnx0/NrFB3cvXzx/+tDBg5fGrj94PP/4ybdfzT+/O/vs7tw343PPrz58sn3fOa4oycHBz9rGy8LW3cQRZQxGOAb6uwtC/TVCglZKUktJcjFZJiZJBf6CEDcOyV1ECYgK8U/l+KSGeCaxPBKZ7gkst3gAQ29gY2JY6Cg6Sks11CUqIsJgIoIOV9NgKuqKCYiYBAFkECAiPEQYBBUEQgUBMIH/ClCBH1ToCxP5wcR+CEkAUhqIkuNQchxajkMr8BgF3k1FxKoC3TT+bqoALzWDHBshyl4fV74rq+50ftNAXsNgXv1Ibt1ITu1I1gZgf5dROZS+HjAxbeBjkzAoWTEBbIOn3i5Pv30/A7A8u7A0t7Q0p1+cW1yYWXg3tWAoNQuvJ//9w53vn1x9Pj0696Dvqxsnxof33x7YffP8zpvnd966sOvm+Z3XznRfPb3t8smusROdo8c7+o91Dp/edW3w6OCZw4PnTz28d296cnZq5snDmSdfzT29O/Pk1tTXgzcelW7Y4o8XWNp4Wth6mtt7GDujzdFuCCbNXykMiBTjIiQElYSkkJDlYoKY58VlYDkkbyUTn8DzT+N4pwR7JDLd4unYOAYmFuBDc2aitDRkJAWlpRoCQYFrKAYNNKiSBlFQIXIqVEKGSsgGHwSoCA8T4eBiHEIchBAFIkSBcFEgXBwAFwfCxYEICTD+DqQ0CCHxR0j9kGJ/DwWLGhenyG9MrjqQU3c+v2noUxPZGwAZBhODny2+f7z4fnLx/ZTBx8r6B1jzLBtawqIeEGDYSxt23fpn75a+Xlr8Wr/09bu3c69+nnzx44Mfnt/8enJoevz0wyuH7w7vvXVx57VTW64eaxs/1XHnbNftM1tuHG+/cmTj1Q9cObLx8tHWkSPto8e6ho/vGj1z6PbYwIPxm5MPHz5+NDk9O/dgaub2o2dHzo1FxK2DoEhm1u6mNlgTB6wJGOPoH+Ap4ARFSgO0kiC1BK+SkJQSolQYJOK4h1PcBBT/yBB8Ms93pTknMLBxtBUT6Bg6OpqOimKgohhIg4mVumTQQIGpqDDVBxMKKlRKgUkpKz6gYgJcQkBKCEgpASnBoSQ4pASHkAQhJEFwcSBMFAAV+q8AEfitABUGQATAL+ECnJeCy0rKiizaklF7Krd+IL9peF3D0LqG0bz60dy6keya4eyaDyaW3j8y8Hjp/eOVQ4il5Wm9fub94sySYcEDnA4tP3m9/OyN/pu3S8/fLX27sPjty59n//584un0pdkHA49unrx36eC94b13+3runOu+eaL9ysHG6/vr7xzb9NWpzXePtd4+3Hx1T+2N/fW3D7dMHNk4frj51uHmy3vrhnpqz22vOdndcGpX28CxvdcHL1wfHXwwcev+vftXbj5o3bKXSBXaOXha2LobW6PXOKDMkB5INjNQI8FFy4KiZfhIGTlSTlbL8DKBnyjEnUfxUjAC40L9E0O8ktjuCQxDIAAT6Bg60BuiaEgtHamlIyJpiAgKMpKKiKDCNRSYirKi4ZdMKKhQORUqp634gEnIcAkRLiECMiT4FRASHEwEbCnAfH8w33/l0UME/mC+H5jnB+IGgriBUAEOzqf4q5WctLKYst05Df15DSP5TSP5jcMGE8O5dcM5tcM5taMZlYPp6wc/0y8/1Osf6pcf6/WPl1ZYmtQvTb9fnNUvzC4szL5ZmH29OP968enLt09fv/v6zZuv//3T7LOZa4/GL9y7euLu6OHbA3vGz++4c3777VOd1w+3XN1XN7qz/Hpv5b3DjTd3V13ZVX5lZ9nY9pKruypu7am+uaf66q7yyzvKxnaUjewoP99Zcqy18GBr6antTX0Hdwwc3Xf5wulrQ4MXzw+WltRiMTh7B6yNg5upPWatM8rW299DEI7XyvGxClyMnKCVU6NUJLU0QMLx4jPcRVQfDcs/McQ7kekeD6QBE0s1YNDwexNUhIYGV1PhaiANMBUdqlzJBA2ioEHkNMCEjAqVUWFSClxKhkvJSCkJKSEixAS4GAcT4aGCIAg/EMwPAPMCwMC61jAxjCBuECgcD+ISkYJgQlSCMKchqepYfvNYfuNYftNoASBjNK9+OK9+OKd2KKd2OLN6MKPyg4mlpUeG5dBjwzilX5xZfje3+Gb2zauply8nX7yaevFy5ud/T/77X5M/fv/V06krD6+fuTdy6M7AvomLveNntl0/1jp+rPXWocah7aUDXbqRbYXje9Y/OFQ3tlV3oSXtZG38mfqkoc05Q+3ZZxqSTtYmnG9OH+nMv7K9dGxH+cUtRSdaC09sLjvZWXOwrfpwR8PZ3u2HduwszFznjfV1sIPZOCDNHZHmUCyCxsBr5ORYNSFehYtR4LRyolaBV4p9hCEeArqnnOEXzfZNYnsk0lfS8HsT0R8DQUNoaAgN0KUNHYJuMEGHKugQOaDhIys+YDIqQk5FyikICQkuJkBFuI87bQg/CMwL/D1cHJhLBHOpWLGAFp8rz+9Mqzmva7lW0HSloHk0v2loXeNwXv1Qbt1gTu1gTu1Q1obBzOrBz5aXJ5eXJ5eWJhcXJ5eWppaWZvRLs/rF2aW3829fzvz806N//nj/h3/c+/GHez98N/790xvPHg0/uHzsTv/uO+d33jm3feJM182jrZf31lzdu+Ha3sqBrvwL7ZnDW3LvHai6u7dytCP3XEPiwVL18aqo07Xxh8rUPetEx6uiBluzL3UVXjNEZ2xHWd+WolOt+XtrsjoKEjqL0vY1rt/f1txQpBOyQ+BghIMTzBHu7uLp583hkKNUhGiFIRNKfJSCECkPkgu8hGwPER0IREKIdzLTLYmKjQfSgI6hoGMomNgPmYgGqhMcqEjUDxoABwYYUCUdqmBA5J9CB0zIaYAJA3ApCSomQIAzDyJUQIDw8RA+HszD/Q6QwQSUx/BWKkJSSzVFOzPqBnUtNwwmhtc19a9rHMxrGMytG8yuGciuGfhgYmkaaM4LU8BZkKEi6d/NLL6Zffty7qd/Tv79u7vPv77x9fyVr2dGnj0eeHLn7OS1I/f6dt4503XvZPu9k213T7SOH268tqfq8q6Sy7tKruwqHu7KHejIutlbOtSRfaIm5kCZeneR7Gh11OHKyP1lqsOVkX2t6Ve6iy9vrxjdWjK6tejS9pLR7SVnW7N7S+M6ciK68mJ2lKT11hXurC/bkJehFgpYDDabLyLzhSS5jKxVkmJUhFg1LlaFi1IEqSW+0nAPAdNTyvSNCvZNDPZIpmOTKJg4CiaWioomo6LJ6Bga0CSiacgoGiKSBtNQoGpgsQQHttO/pAGmYkAVAL8zAZEDKVkpU3AZFSYhAUvb/2bCNTzIlYOHC9hBUTGC3NqYioM5jZcKN94saLqsaxnMa7yY1zCQWz+QU9efXdOXtaE/a0N/ZnX/Z8uL08sLM/qFmeWF2feL88sLcwuvp9+8mP73j1Pff3vv2dy16YdDj+9dmLxzZmr8+KOxfQ8Gdtw/t+X+qbb7x5ruHW28d7Rx4nDd+P6qK7tKLm0vGNuhG92Wd6l73Y3ekuEtOacaEo5Ua4/WRJ9rSb6wKbWvLX1gc2ZfW8bFTblnW/JONWaeackc6Fw3tr14aIvuZEPmwYrkvSXJvaXJXUUJ29Znbt1QWF+Sn5WeFpWYLIiODo6KpGpVpCilwYQaF60MUIq8RGEeAqaXjOUTzfZKYGKSyJhkMjoOSMN/moBHUKFqMlRF/k1RUtINJphQBRMiBwAb+GCFBvnQMKASMhgwQYAJSFA+CcIjQnhEMJfwW/AgLg7ExWOkHGpSqqK4NanmxLrmK4Ubb+qaxwpa+vMaz+U19K+YyPrUxNKb6aW3M3rgSA4woX839+7V9M//nPz+2wfPZm9MPhicuHbsztWDD68dfHip596FLXdPt90/ufH+saa7h2rvHqq5dxgYJw5UX91VPLQFSMNIV971npKx7QWXtuUPbM7q25Q23JEz0pHdtyn1bGPcsSrNgRLZ7kJ5j065p1h9pDr2bHNaf3tOX1vu+Y15h6tSdxbEdK+L7l4XvWVdTFdpxpbqwsrCnOzstNiMFE1GMj8phh0bwYjRUKLU5EhloELoJQxxEzI8lWyvKJZ7LB0TR8EmUtAxVHQ0BRVFRmrJwHY6ioqKAnYPcA0JqiICJlR0GFCOaAboMCUDKmdC5SyIDAAqC4bKQmAyNlTGgEppUIlhhyEmQ0QksJAEFhAhgAkyhE+C8ElgQMYKJDCXBOYSoVwCjEf1VsrD0ku0FTszG88XbLyi23hV13KpoHkgr+FCXgMQiJy6/hUTmdWGTLz9eXLh5dTiq8mlN1P6tzNLr2fe/jz57x8eff3k9tSD0Ynrp67077o9suv+yI67FzvunGq+d7zp7qG6O4frrvaWX+0tHz+w4c6Bmon9Gy5vL77Qkn6hJf3yVt3lrbrBzbkDbZlnG5LO1CUMbErvb0o6UqrYt47fmx3ak8HamRmyNZ3dnRnWky8+UBZxqj7lVH36qaacI7VZO4riN2eqN6fKO9I1WwriO0vSWkqzNpTm6HRZaevSlcnRvGg1NyoiRKOmKaQBYo6HgOkuZXpGBLtrmW7RdEy04XQvmgYcZkSQkRoSUkNGRVJQkcAcoSbCVUS4ioxQ0eFKBkxBh8npMDkTrmDB5GyYnA0FNLAR0jCklIOUhpO5VicAACAASURBVMKlTJiYBhNToCIyREgyQIEIgTlURF4BIqSABWSwgAIWUAH4FBiXiOAycZo4UXZj/PqDuS0DutZR3caRgo0jBc0jwNqpafhjdcquGcisBvjsn9/d/unvd17+88Hbnx8vvJx++/P0yx8nf/jbV7NT129dPTNycfel890Twzsn+jrHT2+cOFY/cbhm4kDV9T0Vg135I92FN/dVTezfML636lKX7vD66MMVUX0tGQObsi40pZyujT9SHnFsfeS5+oQDhdKtKayuJFpvVsiRItGJcuXufP6O7PCedaKeAllvoXqXLqK3JGZfRXJXnrY6KnxDRFhTgrgrP667PKOrMq+9Or95Q2FNVaGuKDszNzUjLyMpK1UcrcYJWB4Cqoea7R7JwkYxDTCwUQyMlo6OpCE1FKSGbBipSA0FoSbDgTSQ4CrK/2wCJg6Bi0NhohUNZJiEBJOQoOIVE0SwkAAWEj5oIBs0/M4EBSvg0GIzlbrO1NqT+a3DurYR3aYhwASwih39YxPPn1z+7ptrP343/vOPD179NPXyn1P/+u7x357de/zV5bGhQwOnuy9f7L4ztPP2+fbbp5rvHG+4e6R24kDVpe26C+1Zo9t1Ewerb++rvLm7fKgj90Cp+mCp5mJz2sCmjIvNqefqE09WR5+o1J6ujj5QKO3J5vRkhR0uEp/bEHl2g3Z/kXR/kezoeu2B0oieAtWWTElTIm9TmrQ1Q1kfL6yLFbSlq7YXJe4oS+soTt1albezqWxna3X3xurO5qq2+vUbKnTJGbF0KdNTSPRQ07FaBjoKAKtluGmZmEgmKoKJUNMQKipCRUOo6QgVFa6iwpUr0BAqxp9nggURsiECJkRIhYrIMAkRLiUiZCSEjASTAIdRYCEeLMSvRAQsIP2HCSqUQ/UUCUNSdNqyHZkN5wraRg0mBv+LiamHF+anB795Mvb981s/fnf/H88fPp+/P/v45t3bg6N9+4fO7Bgf6Jno2zp+euPt4w13j9XdPVo7caDyyq7igc6coa68S90FV3YWXdtZ3N+acbhcc6I6erA1o6859Xxj8rn6hDO1saeqo09VaU9XR52qjNiTx9+ZGbo7l9edHtoWT+9KC+vNl3Vni9tTBS0J4bXRYfXx/K3rovZVph+qyTlSl3eoNre7KKEmUVKbLG/Pj99amrFjfc729TlbSrM3FWcV5cYq4viUCIaPlo7RUlHAuR7DLYLhrmFhNWyUhoVQMVaAK4HnDlfSP/LfTDAgAhpESIaJyUg5GaUkYtQkrIaMVhHhMhxEFAQS4MEC4gog/oqMj9WJCuUw/RUaYXZ1fPX+nOY+Xful35q4lN808gfV6d7E8cdfnZmd7Hs6e+nbp7e+mbsz92j8q4mxm1fPjVzcd+n8rrtDu8fPdtw4Un/zYPXtg9W3D1Xd3FN2vbfkem/Jjd2lY9sLhjqzR7fk9rWkHlsfeaY2bmBj2qkNMUcrIo5WRJzeED3QnDzalnGxIeFCfXxvLn9zAn1rWsjW1LC2OEZbPKs9KbQxmlWlpq5XUutiOA0Jgo4czZ6KlIO1Occa8o815O8qTmxIFNfE8Nsz1F050dtyY7qytW0p6ua0iIoMTWySgK2le6kJGC3F8MKHidUwPdRsjJqNVLMRSqZBABOuYPwGgxKYwrBdkNGgMgZMzjR0CBZEygQQMsACGlgAVCSUgoRRk9wiSO6RFKyGhFTgoOI/MAHikz/0CSqCF0qISJAXtKTUHs3bNFi4eeyDiWFDdfoTE6OjO65e7ZmYOPTg/unHDwemHl2+D2joHx04NHy+d3xo//j5bbdObLq+v/rm3orxfQC391dc6ym8sjP/6s78KzvyL2/NvbQla6g9/XxD3KkN2mPrNXvyRT05vH0F4lNV2osNCWdrYk5WRp6tiTlSptpXKNtfJN+bL+tIDNsYw+rOFO/IVbSnCOuigoul5EIJsVzNbEmVduZrd5Qm7CpJ2K6LaU2T1UaGtcTyO5IkHQni9jjh5nhxc5y4PEGYmshTJIcHJ3MC4tlYLd1Ny0YrmUgpDaVkIwzAFaz/gLmSjI8mIFK6AUAGWMIAiRkQAQPEo4L4RKiYgFYBDrxiKN6xVM9oMjYCj5DjoWJgBQXiEwyQQHySC5cEFlBBfAqYT8MIRKyEgsjSbZlNZ3Xtlwo3jxW2jxS2DhZsHNa1XALWsk0j6xqHcusHsmv7f+3YfX2bBwbaRi91Xb3ac/PGkds3z12/cn508MTFs70DZ3bc6t9963TnjSNNtw9uuHtow4MjNfcOV00cqLi6q2CsO3t0a+ZIZ/pwR/qlzvSxrsz+lsTTNZEHisXb0ti9OeEnKlTnaqKOlSn3rBPuzRcdKlHsKZD05Al78kS7ssUdCeGtsSHbs2Q96zRdGdLG2LAKFaNQQswXE8ojWHVJ/E2Z8vZs5eYsRUuSqEbDrtWw6zXBdUpWpZhSKaJUyJglEaH5KeK0XKU6V8ZI5HhH0N01TLSCgVIwkSoWQskEMvExDb+ZA2XqP01ApEyQmO4qokMELBCPDuIBmUArSR5ailcM1SeO5hVDdoskIBUEqBjQ4MrDGyC68oguXCJYQHXlkSF8urdME55WFVu5J3fjQHHH1aKOscL24f9u4uz5lhOnqk+erj59tv78hbaB/l39F/eeO9Nz7FBH34ltEwN7xk923jrceHtv1cSeivE9pTd6i672FFzqzhrqTOlrjb+4MW54c/KVbZlXtmYObko4UxNxqES8I5N9UCccaIg7U6XpSmY0aII6k9k7srk7snk7c/i78kTbM0Ud8dyWqOBNceGtCbyG6JAiES6XG1AsI9fGhTcm81uzZB05irZMaUe2oitH3ZYqaU0StyVLNsXyK6WMEj6pkE/OE1FyIznpiWJtsigkMsRPTnVXMBByOkxBgyt/6RAfWgUToWIaesOvreKjCWDTAADUpQ8m2CAeE8SjQkUUtJLioaX7xNJ94+k+cRTPaBJaSfydCRcuwYVLBPEprjwyXMTGRSZJ8zal1B7Lbx8t7rxW1HH5tyYu/3EmzpxvOnqi7OCRwv2HCvcfKj90uP7gweY9e5p2ddecO7T5dl/v7RObxw/Wj+9ef7u37PqOgktbcwc60/vak/rbEy5ujD3XFDXYmnC5K/3ylrT+5tjTG9RHyiQ9OSGHdIJz1Zp963hNEYF1qoC2eHpHSnBHMrsrndOdxd+aJuiI522MDm3ShjTHcJrjwmsiWSUySk10aEe2clOGZENscGeufEdhZG9pbG9pfE9xQve6qPZ0ZVO8qFbLq1JzKpShhfKQXGVYRiQ/LkbAVbJxEqqnnAGTUV1lFJiSBlfSEaoVGEg1A6n+aIIGN/z1UxMrfWLFhIuQBuEHg7hsEI8OFVHRCpp7JN07huETR/eJpXlGkdEqElQMtOuV6mQIBMGFS1oxgZZxqPE56sJt6Q2nC9rHijuuGarTcGHrgKE6jema/8TE2QuNh0+U7D2ct3NPZtf2jPYtWS2bshsasxobcg/trLtyquvaoZbru6tv7Cyd6C2/1VM8siX7ZEP0iVpN36a4oc1J55ujT9aoTtdFnG+KOl+vPVejOblevjsntCedtTcnrCOO3BwZ1J0eujOH353F25wcsiWN05XJ70jmt8Vxm7UhtWpmvTZ4UyKvK1vekaloS5d15qpaMyXV0ay2TFFHjrwrT9Wt027Lj9qaF70pTVUZydVJmLl8ik7CKlGHF6jCczX8rHhZZJSQJmP6ANs0qqucajBBXTlqRarpKMPVJiSwlgVekcKAteyv1QkqY8DlLJiMBZEwQSK6i4AG4YeAuMEgHgMqoqMVdLcIhmcU3TsGwDOKilED5+SGvR4ZIgT2E4blEwUqokOEdHelkJ1SEl2+O7vlYmHHteKO6/+3Jk5daNx9KL+rN7WtO7G+Pba8MaqgKjKrRJVbGtnVoRs4unG4t3pke8nVnSXXe8tu7Skb684/XRd7vEp5oSnqXGPUoQrpgXLJgXLpvlLRkfXy07WaU9XK3pzgbUnU3VlhXYn0LUnMbWlh2zJ43ZmiLenCthR+e4qgPVVQHx1coaJUa5nNidzNGZKteaqOLEVTkqAhkdeUxG9JE1ZFscrVtCptSFVkcGVESKmUWcAj53FIWcFB8RTvBGZADp+WLw3OlYemqcNjIrgcBRsnZ6LlwNEFcFKkoEHUdKgaKFMYBQMrZ2BkQO0CKelgBR0mYwBIGTApEyphIqTBCAkbJmZDhSwonwXhBUO4LAiPDhNSUTIyVkXx0FC8tAAeESSskoyUUuAiGlxEB0YhFcInQPhECJ8B43P8NLH8zPrk6sMFbQOlnWMlHZeL2kYLW0d1m0YKNo7qWsZ0wIuKkbz6oZzagQ/Hf32Z1X2f7TtW0bkro6UrrqY9srhBmbNellIiiS8QJxcpOrboBk+0DvVUDXUXjW4vvNJTMn6g4vbe8utb88c2p45uTjpZrdqWE7y/XHpuY+KJeu3xDaoLTTEXG7X7CzjbkmjbU9m7s3m9WfwtySFVsqBKGb4ugtESF74pgdsYF9qQENKcxGlK4tTFhVRHsWtjQuriwmtjOc3Jwk3p0g2xnBxBUCLDLT3Ur0BIyg3H54Ti0uk+iUSPdJpvMs0nkoCNJrlncoj5MlaWMjRWyeZKaHghyV1ERkmpKBkdrmLANEyoholUszByppuUgZUy4DImSMkEKRhQKRMqZUAlDKiYARMz4WI2QsiGC1gwHgA4nAkOp4O5FKgAeDuEURDd1SSPCAB3DRGjIAEXAwEHDLiQjhBRYUIiTEiC8dkooQQfnSnNbU+vOV7UPlC2ZbRk86jBxJhu4yXdxjHdxssFgAngTVFO7eBHExlVFz/bsiu3qTNuQ1tESYM8q0KQpOPG5fGicvjxBfLNnbrhU53Du4FMXOspud5bdL1Hd2NH/o2u7GudaVcNjeFwhfxYdcS5poTTdTEnNmjO12sv1muPlUk2ReFao0l7coW7Mnnt8cw6FbFajt+gJNdr6A0aRr2W3hjLqI+mlysJFSpSVSSjWsuq0gZviA5tTBRURoZl8gmRFKzQy1nk5RxNwmaG4fK4xAymXywenUzxTGP5JdA84ynu6cH+OTxippiWrgnVKFlhUjpeTPEVUzzkQFVZOfRGqBhoOQMrpWMkdLiUAZIzQAo6REYDS2kQMQ0iooGFNIiADhXQITw6hAsADqeDwqmgcCKEh4cD18twWCXBTQ2AVeFRMgJwP1NIgQmoMAEVLiTDRSSYkAQXBGMlcmpivrpwa3bD6aL2gdLOkRUTuk2XClpGC1ouFbSM/aeJjKqL6ZUXPqvfnLx+Y2RpkzKvSpRSxI3L5URncjRpHGUKr7om7dyhjQM7K4e3Fd3oLb26M394c0pfY8zFmoiLG9TnqlXnaiLO10Ufr4zYVyQ5UCw9XCLdns7sjCd0p9BqFb51qqCtqaGtsfRmLbktltUex27QUMoFfkUcz8Jw90Ke27owdHYIqkjk1xgX3JTAWScIyuEFVmnDChUsgQ+CiXJkoRxDMI5iP1gkERtNwsYQMYk0j8xQ/1wurkBIKpVSS0RknYCwTkjKV7PTI8NiIsMEcgZNSPaX0t1lNLicDJVTYXIqSkbDSAATCAkDIqOD5cBBN0hCBonIICHZFTixoIJ4VDCPBjHwwQQezAuCiYALHGg5DrjUpASu0iAkODjw9pQE5VMABCSYkAjhE2ECtodCHZJRHlvRu67lfPHmwZKO4ZLNK6UJMJHfPJrffAngt5n4xURxQ2R+jTy3WpJRxk8s4MRmhWlTQ1TJoZK40HUFkSd6agd3Vl7aXnKjp/ja9tyBjXGnK+WnSkQnigSH83mHdIIjJbI9+cJtaWG9ufwjxdKOOGKtGNsZS+xKDWlPYG1JCWmNYzRFUmqU+NZY9o4McXeaoDWG3RJFaYjEl0t8coJRWcGoYnFge7q4K1fTkiJpSBCtkzIYaJCnjTEJYsf3RUZSveNYfnF0zziaewrLK5sToBMRSqSUChllvZRcJiIU8ILyBLgcBSNDExKjYEmlDIqU5ieloqVEqJwEU1AQMipaQkOLaQgxHSKhA2mQUsFigwY+sBsA86lgHnVFA5RHA2LBpYLCCYAJIXCJBikNQsmCUDIcUoqDi4FLsVA+EcIjQ3hkKJ8I5RMgXCJCEOariREWNCTXHtS19pV0DBVvHloxUbBxNL955M9MpFdeADKRUSlNLRcml/ETC8PjcjlxWeHRKaHqhDB5PKewKPrc3qbLe2pv9q4f7ym6sSN3cGPMmfXSo/lhvWm07gRKdzJjSwK9NZa6NTX0cInqTFXk4QLhzmT60ULR/iJFZ0poawKrLZ7dEsMs4nkVcDw3xoQeLo07WBzdu07WncVtT2JXqwiFAl+dwL9Gy9qaG9GWrqyLExarOWwPJMrCCA9xkJN8YlhBSaG4LD4hi4vL5Pjl8YOKpcRiMb6Q518U7lsc7lsU7lfADVgnwOdKqFkKZqomNFzOJEip7mICQkYEDv7kVJSEihJRkWI6XAx0abiUDhXToEIqmE8GcSngcAqES4Ny6XAeA85jwrhMGJcO5VHgAjJCRECKcUgJHiXBo8R4pIgAF+JhAhyMR4RyyRAuBcolQblEKIeMEfGJsWnK4rb0hmOG0jRcvHmoCNjTAb16xcS6ptE8oF0DTeJjn/jFREKZILaYG6ULi8wJic7mJOYIEtK4EfFh2mRBXVXK8OFNN/fVj+8qv7Ytb7Qj9UJD5OlK2Yki3p4M1pZYUns0oUEduDmBeaoq+mJD0tESxZFC8d6ssMM60ZGKyH1Fqn1Fqt58RWe6sDaSmcF2S6QgK5WM3YUxe0uit2VLtmaLN6cJ6qLZ6zX0am1wa5p8Y4psfURYjojOcIchLNYGQexkJJ/YYHwE2S2e4VkopRbLyQWioBIpoVRCKBYE6sK8CkM9S3n+5UJcmYRUKqMVK9n56lB1RDhbyfKVEtFyAlRBgiuAHo4W09ASBkrCRElYaCkbJWEhhUw4nwHnMqAcOpzDQISzUNxgNC8ExWWjeCw0n4ER0DFCClZENkDBCMkYIQUtIKF4RCSXgginG6AiwqkIDsNLIgtOLowq785uXmkSBhNtQ4WtIyt9Ir/5EmCiYSS3bmjFxMp77F9MaIs5EYUcVX6YMis4OpubXazK06mS0oVxKfzm6uSRA03je2tvbi8eaU09Uxt5uEy0v4CzN4u9JzNkRyqzK4mxOYG5Tycfbc8Z2pSxN1+yK4uzNYm2NZlxsER9oETTq1O1JvNK5OQyJSObh1MFwaX+sFQOQSdj5AmC1glxxXJKvoiQwfHP4gTkC0nFMkYenxhD8yKjnREWX/i7WvL90fFhuMQQ/ygSOjPMr0iELxbhSqUEnSAwN8QznYZMI8OyaMjicJ9KKblGxa5UBRcp2bEaDk/JwisonmoKKoKKjmC4qdjuCpabLBgrDcZKQtzEYW6iUAzf8NDDg1FhbHRYMCYsBMsJdQsPcwsPdQsPwYazseEMbDgVy6O48ShYHhUTTsNw6GgOBRVGRIVSkCEMZDADEUyHs6mokOAASSQ/tSq5at9Kkyjt/F+aUOqCZfkh8rwweWaoNpObX6atqUvbUJNcVhq9vSVnbF/93X11N7cVna2NOVgi3lvI25UT0pVE6UqgdCZQOpMYbYnMljhacxxtZ55wV56wPZ7WqPZvjSHuL1buKVK3p/LKFJRktmeumKrAY3DOpj72xniIHQVuw0LZCHxAUTRPLcVN5g9VBcIiccgUpnd6sF8s1Z2KcURbfY6DWnJ9IVEs70w+IZeHywr1KeD6ZbHcYnAgbYCzxsdB6+sQ4+8YF+CUQoTqOH6VMnqlklUsZ8XI2QIZjawk+0ZQsVo6NorlERniqQ7xkIWghcD3HRXGQoSwEMFMOIsOY9AhVBqUQodRGTAqA05lwoEJDUolQyh4MAUHpgSCKYEgUqArMciViHMh+rsQfJzxAc64IKcgnGNgkJ2fP4REDxTEiFPq0yuP6jb2Gdr1UGHbQBGQidH/q0wIcxn8bCY/nSlMYarTwtYVR7ZszNu1Y/2+3sozPVXXDzQ82Ftzs0t3sipye3ZIewq1LsKvmIso5MBKeOgSPjY3FBFPsk+mg7qyefuLFRtjyeUitzKhW4OW2JoUVh1By+X5R1EwUjwKB7aEmfwVZv4l1NwIYbE6CGQR6gnR0H2jmf5qAjaKhI0luyXRvXI4gXkCEi8QhrX9KwlhzvcDacjobD6+REbNDfPLC/HOC/bKoLslUdBRgaBIP0eNt43K00rr65BOxxbycKUSWqGUHi9liGVUmpLiH0lzi6J7xIZ4R4d5KNlILtWZibMnBNj6+9n4+lv7+Fl5+Vh6+Fi6+Vi5+QJgDWC8LTGeFhg3cwzaAoMyRyNMUXBTFMIUgTJBoI0RcGMExBgOM4ahjKDotRCUMQzt6kchCRPVGa25VWeKNg2stOv/nQluGjUshRqSSOYl0jTpYcVlUd0dRaf31PUdqO/ftX5sV+Xt3vUjHdnbc7l10UFVKu9SITo/FJwfAi7iIIp52EK+W5HYu0KJ35Ev3Vei7ExmN0YEVUm9yyW+VSqiTuCfHuIZT/eQBMApcFt3GyOsjam7vaWngxkF6cDxhSvJnlq6jwqPVuEQMWRsHMUtPdivWMFSMbzc7D4PgpjyAiBKIjqO6bVOQKhSMipEBF2od26wVwoNGxME0fo5abztlR7WKk/bWBwkg+mRxwnICcfFhuFlXDxHTqFpmYFxIf4J4T7R4Rgxy5kSaO7ptgaGWA2Cf+kCW+UEWWUPXmUP/tIeagC22g6+2g7+hQ34CxvXL2xcvrBxXmXjtMrWYZWNwyobx8+tnAw4/NXK5q9W9n+xdPyLpfP/sXRZ7YgE+zBYspy4vO7CugslrYMlm4eK2wcLWwcKNw0WbhoGXmI3A6+vgTtnDcN/3Cd4idTwRFpYApWbQFMls6qrYk/0VA3trB7dWnaxLX+gU3elt+JMa1pPqXxrXnhHGrMtkdyg8W1U+zVqghoiic0x9E3JYR0Zwp35in1Fyl3Z/O4U1tYUdntiSH0Uo0JOzA7zTg/xTQv11xCxskCMHO8R7gljoOxCPZzCvV1FAVAVESULhIp9XWKpbils33iqexonSEH1dHdY7Wa3OsQHIiO6R9A84hge6cHu+WFeRRyvdcEeGXT3FBIqxh8U5esSGwCK9nON8QclE5GZDI9UmnskwV1KcJcICFwNgxYXgo/nems4sFCalYeXkQviSxvwF9agL6xBq6xcV1m6rLJw+dIcYLW565oVTJ3XmDqvNnFabeL4pbGDAccvjT9gZP/FWttVRrZfmNh/Yeb4ubmriaM7BifiRZSnF+8tabxY2jpU0j5U3DZYBJgYKNw4pGsZKmgeNNz+GwQuO/1y+++Xm2e/dGxBMl2QwuKlsoSpLFUqu7Iy6ujO8qFdlUNtBWca0081pQ11Fw12F5xrTz/RlHCsJupopWZ/kbgnj7d7nXBHNr8zLXxnvvxAefS+YvW+IvnREtnxEsmhAtGuXPHG+OCaSFpjfFhDArcyMqQyKrwiipcrYSoJbiJ/qIKIlOER0gCIPAgmDQBL/FwTGJ65PEIKyyeW5sELQHrar8VYrcLDbHkBSDXVM5Htm8b2TCLB4gOdU0nwgjD//FC/uECIxtMhLhCSgIMBGujuecE+WSzvOKKbDIcSsLy5MlJYQjg1nuclD3GhE4wQmFV20C+tIautwb9gBVpt4bIa0OCy2sxltakzgLHTaiPH1UaOX651+HKtw2ojxzXGTh9wXGNkv3qt3ZdGtp+vtf3c2OFzM1drkL8fPVKZ1JBXeaRi40Bp2+9MDOpaBg0mBtY1DhhMDOTU9ucAr4n6smv60ivPpVee+0yaESrP5kpzuLJcrjYnvKwycu9W3cCuiqHN+Wcb007UJw9uLbi6p2J4h65/a+759oyzm1JO1cedqI05WKbekS/eWSA5VKk9WZdwvDrqSJniaLHoqC78YAG3J0/UnhK6NVt0YH3MDl1ES6qwMy+iMz+qKlaQGOqvIiCVBEQEFRtN99CQUIogmAoHi6Fgs8KDsjhBCUyfcF+4p/1aL3sjIsyO4wUT+SPVeHQMEZlIgOcw3QtCfXTcQB03MJmM0vq5aP1cYgLAyWR0Fsszk+mRSELFBCHkgTAhHSuS4HnxHFYC31cW4kQMWA1Bfm4H/cIattoassbGgDV4jRXof2fC2H61kd2XRnafr7H9q5HDF2ZgJySZHJ4UndWuqz2xvnWwDDAxWNw2UAQEor9w48AnJvrz6gdy6/7IRLROHlOsjC5TRZUqEkrkxVWRW1ozT3cXD3bmX2jLvtCefWlXyfjhuvEjddcPVF/qKRvo1l3oyLnQkXNwQ3RPqfLQhuiTDQkna6PP1EadrVEfLeEdLgg+UsjdoxP16CQH10fsKlK0Zwh2lUT2lMZ05KqqYzl5UlKOhJApIGQJCNlCQraAkMnDJTCAdpLJCcoTkNI4OFGQW4CLBQnuwMCCWRiQNBD41ymFD0SKtZNjbDRejtGB4EQSMpWGTaFiEoiIJDIqg+mRyfKMxUGVnvYqDweZt6OQCJOLguSxYZyY8AARyyXIb7Ur/HM72Je28NU2kLW20LW2UCNbqLENxMgKvMYCKE0rmVj5+n+Mxe8ysdrIbo2R3Wpj+8/X2K0ydjGyRqN8wjmK/BRdd3HD6cq2ofK2odL2wZK2geJN/UUbAQpbBnTNAwVN/fmNfevq+/Pq+nNr+3Jr+3JqLubUXMyoPJtRefaz5LLo5PWxydVxSdXRqVXagmptc1PKoS355zbnXNicM7y98Pr+6jvHm++e2nT7WPPlvdX93cVnO9ad3Zx3pCH5UF38yeako7XR+8ukRyqkJyvFJysEpyt4Z9aLD69XHq+NOrJB25zEbE3ndOsUbZmCSi2jVEVer2Wuj2JVxYbVxPPWiUkZHH+dlFqiZJVrQqqjuVVR4flSG5TZ9gAAIABJREFUppLsQ0e5BHvC6RgQBebI80JIfJEKX7jaG6x0d+RBTTjgtTI3m6gAUDwBHk+Ax+KgqTRsOsM9hYpJJCHjcZDIQJCUANXwAzVRIXx1KI5Lc/XzXuMMBaqTLWzFhJEdzNgOZmILNbYGZBhZgNaYuawxc1lr4rzWxPlTHx9Kk9MaY8cVE2tMHFetdfjSFGzm4OVDVEii1meW9pY2navePFLR/sFE60cT/brm/oKmPsBEw5+YKKjJyq/LzmnIyqpPy6lPLqpNqG9KO7C18Fx3Yd+2whuH6u6dav3qbMfdU23XDzeN7K4e7Kkc2bNhuHf9+a78cx05/Vtyzm1MOl6jPlohObFedK5GerFG1levPl2vPVkfc6BCtVMn7i2Wby+QbsuXdmQLm1M4dbHsCg2tXEOv0rJLFNTUYK94OkYnpdYniJqSZRURYUXKkChWYKgHlIl2JYBsA50sQrBgsS9S6Y+MJWCTKe5xBIQAac5yWiVAmkvdbGTuthpf50y2l46PWxcekBPqm07HJlJRUTRsHC8wLiJYqQqhh1JgXm6mzuDV9pAvbECrbSBGdjBTR6S5M9rSGW1mBzexgRpbAjIATF2MTH/j4xMrDquN7FavtVltbL/G1HWtOcIRRqKEJkakNK2rOljRcqGqfbiifaCsrR+gdaB00//HyH19Jbaga6Ovm2/v7l6rqsxZFAEVjKiogIEgSJAgooJZMYA555wxECWjVpmVJEbMlpVrVTKVtWql7tX7DzmDqu7+unvvfc4Z4xlzzAsvHP543ndOB3Med0uOusSH3eKjLtFR5/RR++Rhq/CwZdye5rGD5rGDhuG9hqHdeyOSoSHpYJ+8v1vW3SNvH5Q0i2Wta7P9O/N9RwuD77dnbmzay23FG5P4tVH00jD90ih6syn7wSJ+uT7+am3kzdrgs9nWA3Hp1lju9ihnT8jdn8g9FPF2p8t2RYKtqQrzOM84WmIYKdkR1VgnKx915shr6NIq+nQFbaKMOlGWNlRI7MhKaklHd2Th+vMpTczEspSoPAw8LRKUAvWNBzjHejuQQvzzEiJ5yfCy5Ig6YkwTJbY8MSg3yqcoDshDgcsSAmsJEe0MZAcT1UiOriVE8NCBvMSgomRoRVpcbR65PI+WlUmNS4h397c/WH/fC/y9B+h7D7CjL9TFL8T+cIZ3sKNnoIMb+KEryB4n4EMn4D97/HNFvnfw/v7hN4mABy4h/lACidVc1qjoHDcPy49HVedDipOBmaMBu4Q9PZKjbvGh/Sg67Jo+6Jg8aBMetI4ftI7bWsZsLWP7jcO7jcM79xQahVwrF8/KJvRTQt3YlGpQruhdnhu2PB426/tOVid/2FK8MUtfGaZ/MEs+bM182J55tyV/axG/XBt/vjz44nH3E23TsUxwIOLtT5XsThbtTBYdSPjWybKtKf6uuHJzomylL2+2lb3YnWMV8rcmKh915MxU06UCmoifNlFKGSsmDRYQmxjIUmyYgBjdQEc3ZWD5lPjc5AhqJBDl5xjr85AI882MDc5FQXnJoS0MdF82tjktlo+BVeJCBVgYDw2uSIbyMdCyxKDCOGBOtG9mpE9uLIgTG1CKh9ey8VXZZH5eRlZ6WhwqDgCBPPQGPvCyLwl7IfxDnX3+m4RzgINzwD97/EPlewfAfUef+w6e9x18v3cEOXvCQ6KZGXn9NR1zfVM7I/KTUcXpkOJ4UHE0MHPULz/qkx32SA57xIe9kqMe8WG36KBz6qBdeNA2ftA2bmsds7WO7TcN7zYO7dx7/Ghh/vEj3eK8YlElX5Ap5qbU2rHFubGNxyObi2PHRskrq/Lp2vQbg/jD5szNnupmT3W5M/PaMHXxePBU23GiajiWVx9J+UeSigMpf2eqzDLO2xFVbU6UL/flzndkPu7MftzO0dQzRWUEZQ1tra94ra9YJqCKylIlgrSpUspkOXWijNbDxTcy0PU0ZHN6ck8etb+E3sDGZqOh2EA3pN9DcjiAEeXPggN4ySHNDFRXZnJjGoKXGFiSAClGg7PhXtlwL06Ud06MLzfahxPlw4L7ZiMCsqL9y3FRtfTkSjquMptWlpuRmcFAxCOcfPzve9qnkxMA5uIX4goIcfGBOnkFObpDHNzA9riAHF1ADv/k8Q+V+45+D5x8Hzh6PXAEPHAO9PJDxSUX5JUJG3uXB0T73ySGFcdDiqPBmcN+2WGf9KBXctArPuyTHPWKj3pEh11TBx3Cw/bxg/bxg7YxW9uYrXl4t2lo5551w2o2WAwm06Jx+bHx8dK6fmlJsbooMa5O75tnTi0K+4OkJvvDW1fWmcst2Tvz9Mu1kbP5niNN24Gi0Sat2psu358qPRQLjuQ1W9OCtZFS40TVjrhubbBE18wW81MnirHTpQRVNUNXx9LVZSx35Okb2RPFuJG8pAkeUVLJlFazJiuYY6WMER5joIg2WELvzE0V0OLTYwMIMHcMxIURE8CKCWBG+nAQ/oUocH4csBAJykUAOFE+JQmBFdiQsmRoEQpcgAzgxviywj1oYd6McAAzzLcCH1NNSSgjokqpWF4GhZfDoqURwqNjIOHxoHCkJzjC2RfqCghx9YXZB5QHxNHdHic3iJMr2MkV7PiV5F9V/B86Ax46eTs4+zu6QYFBODy1qrxupnPUPCI/HlOejipPR5Qnw8rjrxK2Xok9fdKDfulxn+S4V3zUPX3QOXHYITzoEB60j9vaxw9aRvaah3fvne5YjnfMh9uGva3VHevyjmVhyzi7Y9DvGtX7BuWpWfVqR/vaonhlmH5rnHy+0HuqbT1U1B8oa4/UNSfq2iNF1YGUvy+uOJTV2GQN6yPls50Fy0MCi6hlY7x6obdYVJE6wInrz0LIysmGHp51uGqtp/xxW45MQO7NjBvISRAL0qb59MECQntWcicX35lDaM3C8alIDhpGDvPGQVySQc6pMA96hC87xj8d7sMM82SGuGdGeGXBfTPCvbOj/AqQQWW48MpURCUxpigBlo0A0cP9ScFezMiAspQ4ASWxOCW+kIgsoeMEnLTS7LScDFpGejoWTwgOg7sDgtwAUGcfmINnkIN7kKM9gU5uYGc3kNPf4+gCdHQBOvw9D539HjoDHF3ALh5h0AhKWmZTdZume9IyrLCNqI+G1YcjqqNh5dGQ4rBftt8r2f8q8bUc4sNe8WH39EH3tK1zcr9zcr9duN8utLWM7DUO7tx7eWR+eWh6tr9xsbv2ZGf1dGv5xLp0vLlwZJ4/NuqPN5Qn69LzdZFN32vTtG1Lq3fEVZYJ3sYId1dSfK6rOdXU7Ekq9iSV+7LGjfFqZUvBSHm6sIojby8XN+RPV2cMFeL7OShxWYq8gvS4OdcyWGUeql3tLp5vYYvKiNPlqcr6jGkBvSs7sYoMF5DhfHJ0MS6MhQgkBHslBzgn+D3E+Dviwc6pQW7pkX75CdDsWBAD5p4R5sWJ9s+NBXERIC4CzEVAshAQbnxwLiqEGw9lRIDp4SAuMryclFiTThDQcSXkhCIyuiIdX8elNpVk1pZwM+nk2OgoICjYGxji4R/u4hvm5BXi4A51cPsq4Q5y/nscXYH/U4LcfaKikOzMwq6G3tlekWVYtT+iPRjS7I+obSOqw2HlweCMrV+21y/d75ce9NlnlD09IluPaL9raq9raq9jYq9DuN86ut84sHPv9dHmq0PLywPzywPzC5vp2Z7h6a7hYmftbGv53LpwatIfrsqPlkVHj0YOZ3v37fd0TTvSGuNYwa645Egh2BGVGkaKzBOCDWGNsp03IuC25Kc35qTXc+lVLHw9G9OVgxsuwivrmHMt2WvdRaZB/kJ7kaY2XVlFmS5NmSojSqsYIgFjuJjUlI6qpSP55Ji8pBBCsGeCn2OCn2My0JEY6E6BeVJDPBnhvuWEqFJ8JCvcmwF1ywj3zo0F5yED85BBxYlhGVFAKsyLAHbFAZ2Igd6MCHBOApxHQFXScbUZqXwmjpeWVMHE1XIojYWshpLs8pyMtBRcCCzM0xfs4QdzA4Q6esEeuAc/dAtydAP/g8HZHfQ/MLgEOLoF+QTEJaYUFvCH24YWBqVbI3YJ27Bmb0S1P6ayjSoPhmdsg7K9QeneoHR/QGLrF+/3i/f7RHt9ov2eqd2eqb2uib0u4V776F7TwPa910dbrw6trw7tx5cHmy9smy9slmf75vNdw+nWyvnW8uGaxqwd350bP14QHs72H+m6T+e6LubbjhVVptGCR52Z8505cz0lU3W5bQWsyuz0AgYtm0KhJ6IpcREcTEx7HllUmznfVaBvyZIJqJr6zMWOwvm2bHV92kQJto+LGshN7svFNdKRFYSoCmJMMRbOjg3CgN1QAIckoBMO7EIK9kwL82ZEAKgwT04cuCgphBXuTYE4pQW5ZIR758SCOIiA7BhgFgKcFuKF8XuI9XekwPyykeE8IqqMnFjNTKnNINZlkuqzyDVZpCo2UZBBqMwiVecyitl0Ch4fF4cOCYsDgOFO3tAH7oEP3f9dwskt4F/iGvDACejkDg0MxVJZ1YImce/k2phiZ1S9O6r9GtXemMo2pjoYVdqGZ/a/YQxI9vvFe/3ivf8u0Tay09i/ee/lwdYL29Zzm/W5bfPZvj1P9yxP9zaf2Kzne5Yne+bTzRXbqs62rDhZnTlanDhZHDtbHD7WtZnHefMdbFUjU97AnqzKastnlDIpXCqdTqSTsOTk6HhUSCg5Ft6Umyaqz3nUy1vsKVTVpWvqWZp6tqKaJq5IGc5L6MlGDhXghotJ9TRkUXJYQWI4BxVCiwxA+j5EeH6H9Lmf6O+QAnZNDXYjQz3IwW4UqFt6hA8z1JMBc2WFe2aEe7MjfdPDvdOgbrRQTyLEBQd0IEBcmdGQ3OSoMjK6gpoooCVXMXB1bEJdJrEyHSdgYPmMZEE6toZDrsllledk5rIz8bjUIFiMi3eQg0fgQ7dAR7f/O5r+uRzfzp2+3nC4+0RExdM4he2NXcphiXFCvTuu3hnT7Ixrd8ZUu2OqvXGVbUxpG1HsD8l2B6U7A5LdfvFOv3inT7TTJ9rtmdrumdzpEu50CXdbBrcaesz3zre3nuzYc769db5tPbNunlk3j6wWm9VytG093raebm8+2bGcW9fOzPPHazNnBvnuoyGjpGF5qGSuK1fdmq1uzR2pYNdmUoroNA4jm0blEFNY8ZGomKAQbGQYn0Ucrsyeacl71FOsa85+3Jm32sdT1NCH8xI6M2JamIiOTHQnB1tJRmTHBrKiIJRQPxzEEwVwiPd5kODnkAx0xINcUiDOuADH1ECX1EBnSrArM9Q9JwZQnBjEifGjw9zSoK6pYEeM3/cYv+/xAY5kmEcWClaIjyklo8rIqEp6ck06rjYDL2Akl1JQFWkJVcykmvTkZi6ltZBVl88uyWKR8SlhoXBPb7CzJ9jJE+L09w3xrQr/huHkBnJwAfsGxCbiODzBUNfgnFC+KdLsTqi3heqtCe32uGpnXLUnVO+Nq/bHlHvD8t0h2c6gZGdAvDMg3u4XbfeLdnqntnsnd7qFO13jOy0DlpqO9Xt7BvOewWwzbh6YrTbTps24uW+07Jos2xbrnnXHZt21WbZtZvOBeePEsnJmXfjhePWJVW3R9Ki6CpRtueK6jKka9lA5q5JFzKWkUvFkVDwBEY0LBYeHASEp0ZFcArKSmdhXTJI1ZIqrmJIqhqaJK62k9+cktjARTQxEAy22HB+REeVHgXlRw/yIUG9coCcW4p4S7EUN96NF+lNDfHAgxyTAfaz/wxSQAynImRXuyUsKqkqF58UH0GGuNJgbJcgZ638/BeRADnZNj/LjJocXEmKKUmOLiIiKNHR1OqYhi1DHxgtoCQJaYl06pjED15RJbOKQ67lpgiw6h0oiJGMiw6MA/kGungGOrsBvBt9O/k3C0Q300DUQBE0gphVXNUwMjC9OK7cl2j2RdmdSY53Sbk1odiY0u0L1zrhqd1y1O6rYHZHvDMt2hqTbg5KtQfF2//R279RW7+R2z8RO5+hWc79J0Lx0b/3xxvrjDcOi0bRsNq9YLKubm2tW87rVZLDHYtg2r21Z1izWdeO+aePCZrp+bbt5vf3EqjOo+q2qfk13SUcOfriMVZgSiw0Pjg8JDwuCg/1gEG//yICADCyKg4thxYJ4hLBWNqonF9tAj21Ii2thIusoUQJ8WGkyLB8FYdsZPLAgZyzYBQNyTga7JPg7YUCuaRHAjNhARoR/sv+DBJ/v7JMH7EiBumVG+ZYmBVUSw/ORQFaER3q4RxrUlQJzTY/0yUMH80kxZTRUETmugBhTRESUkOLKKMgqZnIdG1/NSK6kJVbTE2vpSTW0pBompj6TWJdDr8ljFWcyMtIoaBQKDIG6e4FdPP62tP9lQ3xdGA6uICeP4NBoQnp2dXOnfEy0LlFvS3W7Eu2WSGsRay2Tmq1JzY69IqotoWrbvkLk2yOyrWHp9pBka0i8NTC93T+11T+13SPc6hixNHSvlzc8urc4b1qcNy89smf5sWV10bq2tLW2Yl1b3Vxbta6tbK8vbxtWrKYVy5bR/PRo9/rt6d3H4/fPtz6/sf38esc2PzbISxsopgrSUPhQIAoaGBMUAvL0Abm6JoYF5pESM9AhqaEe9EgPbpx/RUo4Jw5EhrjSgt0zQr3ZET7MEE9qkGsKyAnj/xDp86dY7z+g/e9jIM64IPckoDMW7EYO9UkL9SUEuuICHFJATqmBzvQwL26sf2lyID8ltCgBzI31y0OCeBhYFTW2iZXUlUvsL05rK6QKWElFlFheWjyfgebTUZX0hEoaupwUW4KPKsJGFeGiS3AxFSRkLRPbkE2q5VKrchgVuewsBiUJjQaCQt29g5zc7OV46Ozn4OL/z5dPD11BLl4hiARGTlFrZ79mSm6Sa3fkum25fkums4i15inN5qRme0K99VVia0yxNSq3jsg2h6XWIcnmkMQ6INr6h0T7sLm2Y4VXq783qzfP6i2zesvcrGV+bvPRnPXxo63Hj60Li5aFBcviwtbK0u7a8q5hbXt7c/fl09Pbq+c/fnp2/eHsx6uLP1+dfXlmWJ1o6MlPGSpJq2Zi0mLD44PAYX4+0QFejITIHHw0LQqAAd3HBXxHhDykQt1xQKdYl/9Euf6JCHCmQNxT/J0xgAcYfwdikCs+0CkJ9IAS6cVGQTJRMGq4Pz7QnRzqw0XC8hJDaGHeqYGuaSEeWQhgOT60mRHbzka3pCOb05E9uSmyOq62s0zdzlO0FEma8oUN+V3l6fU5hJpsXF0WriWX1JqTWp+BLU9F5KChrGgICxHMRYcWY6MqSPGVtITqDFxlFonPSctnURjkFHgUChAQ7uQW4ODi/y3/kHBwBT50BXv6wbGk3LLqgf7ReYlyU6nfm9FtK/TbM3qrRGuc0thr8VXCKlRZxxTW0ZnNEfnmsHRzSGIZkmwOfq3FwPROj9DaOmisblsqrtbe0+jMWp1Fq7NodBat3qLVb2r1m/pZ8+y8cXbeNDdvWXy8tbq8bTHt2fYO3ry6uLl8dnv95O72+eeri7/cPPn9/d4rg1TakDkloAv56Z35lAo6JjMxgo0OzURDSSHuKRAHjP8fsf5/IoAdkgH30Z7fJfk6pQBc0sAeTKg3Aeic5P0AC3SmhgGoEX7kcO/sRFhJKiInIYKNCKLAfBkR/qX4mEoqkh0TwAj3zk8IFpCjW1iowYKUKT5dVpepact73F+6Pl5nmm5dGa2d7xdouspmusqmWooGK7M6i2kN2SktOaT2fEorl1RJS8xJDKNFBqRFgjOR9kfoCrD28EixJWRUPhmdQ0rgUnAMMgUZmwAKgHp6BTg6+z1wBjx0BT5w8f8WBzeIHySOyiytaR4fnVqQa6yquV2Fbkuht87oNyVa47TGPKWxTqm3JlXWSaVVOLM5Jt8clVlGJOZhsXlIbBkQbw6I7M3oHre0DBiqWheLqjT3VHqLWm9Rz27+S/QWjd6kmzPrZg3z8+uryyarxXp2ZHv/w/nNxyd3109+unn689WTn98ffnm5+cIoWxwqk9bSxnm4Pi6yiR4hwAfmxwHYYW4U8H2C/5/wgD9iff6I9fsOB3yAAzpQYd7pUE8GxIkTCUgP800COCC9HVB+LinBAEokmImApkdDs2Jg+ciIfFQ4NxbKT42rZyRmx4GKMCGdOfjuXHxvLnaST9V15CwN8dbHKwxTlSZRjUlcb5iuXxypmuvn63oFsuaiqdrc8SpuH4/VUUDrKKC35dFqMwjFqaisxAhWfEguNoZHQuXj4JzE0HwcvAAH59q/kB/BIyHLmIT8NAIlCRUHh3t5Ae47en3v4vcnZ78/OgL+5OT30A0MC8dw8+paOqenZcsKrVk1t6mctczoTDKdUa4zSbSbEs2WWL0lVltFqq0phXVCvimUWcbExpFp45DIOCAxDkgsA2Jr15ipqW+dXz9XVKG8p9RZVHqLSr/5L9FZVFqTRm9Sa9dm51dXVzYO9ndeXBxevz+/uzr/cnP++ePpT+9Prp9aXlrVp0vjW7Lm5cEiRV1aHwdRQwgoRXvnRLpxI9wyQ11ZMJf0EDcy2JEEcWSG+7Dg/qwofzrULR3qXBAP4cYFpoDc0L5OiUA3cjiIBg/EBLjjAtyzY6C85JhGOraZiWtOT64ix+bGg5pZyKlK5lQlQ16XoW/jLPTmLw8WrgwXro4Wr46VrAsr1scrF4Yq5vrKNB2l0vq86docWVPRTFuZqLF4WMBtL2DWZBArmLgSamIOLoaLi+FR0OXUhFIyqogQU4CD52MiivDwMlJcBT25PJ1YyCSlp6aEQUOcnL3++MD9Dw5e3zn5/MnR28kdEh1LKi5t6+6Xy1Qb6jnr3yT0JrneJNeZ5LpNuXZLptmSabal6m2Rwjol35yUWYQS05jIOCwyDEgMdgnRZteoqalnraJutrBccU+l3VRpN9U66z9Hpd1Uqs1qjUmtWX30aN24YXp6fvju1cmnj6d3l8efLw9u39o+PrU+256zPR4/mO0/1nUfq1v3JNVzbRkD3NgmCqyRHN6VHt/OiGuhITrZSTWkmKJEWCkusiAxlBLimRJwPzPSpyIFXoyLzIyDZqPCMpGhLEQwAx6ACXCgwLwKEyPL8IhmJrY3h9LNJQiIkTxs0FgpWd+ep2/PWeorWO7JfdyZPd+RMd+Z8agrc7GPszpUuDbMWxksXejjqVoLZxoL5E0FitYSZXu5slMw3VjSw2PXZpEqmLhyBjY3JZaFDsvBRRcS40vJ6GJiXFFKTAkRwaciK+kJVem4cia+hEHIY1BSEhODQEGOTh7ffe/8n985f/fQ3cc/NBHDqqzpHxzTKrQmzZxVPW/HmNGb7RJ604x+c0a/LddtffMQK63TM3+TGBcbR8TGIalxUGIeEG12jhibulcqanUFZbJ7Ks2mWmv9t6g0m0q1Ra0xabXra6vm/Z2dH16cXP5wfPNu7+qN9fKl8f1Tw9Pdx4drsl390IG+71TffaRqOVI07ExXbgwWLnbmaOoztfXZ8sp0CZ8pr8kaKabWUBD1DHQlOY4e4ZMa5JKXEFydhiojxxcRECWp8Zyk8Mz44Kx4MBPukxnjLyDFVRARgtSYBjqykRlfQ45oz4hT1qcv9eQt9eau9eUtdbDnm+jzzdRHLbT5VtrjduZyL2etP3+lr2Cxp3C+i6dqyhdVZU/XcGTNxTPtFZKWsrGago4Sdh2HIsggVDBxVWxiFZtYTEbn46LzcTEFuKgCHLwIH1Xy7cKXllTKwBczSRlEHDExEREBB/uDH9x3uv+9IyQQTqLmN7UKx6cfKXXmf0goZs0zs2a7h84i01qlmk2pZlOisn6TmJJbJqQmocQ4KjYOS41Df5PYaOpeKq9R55eK/zcJq0pjVWvNs7MGi9H65OTww+vj67e2q1eW9xcrb04fPdubPTUpj1bFu/r+A33v6Wz3jrh2R1S5O11pneAbhniP2nLFZWnicpqyLktaxR4uovAJkXUMVGN6Ug46iB7hzUUHVVDjK5nJZVR0Pj46OzEkIw6UmxgkIMEFpKiqtPg6OqosJaIkObgkCVxDChkpTFLVUOeamY9b0xeaGXP1JG01fr6OuNBMedREnm8mL7Wnr3ZnLXdxFts5+tZ8dWOupCZLVJ0lrsudri+YaiieqCserMrvKMlsyKU35jHaitl1XGo+IY6bHJVnx4jORoey4gKz0DBuUlhBCiI3JY5LQGYTk7LJBBaJSMJggwLAnq4eERHIjMyKrl6pSL6int3UzFk1j7bU81bFrMUuMWuWaS1SjVmqMUvUFolqU6zcFCk2/yExJjWOyEwjEvOQyNI9st7UtVBWoywoFd1T2T/7m2rNpkZjtZ+oN9Vqi0pt74RKvfHokcG2u/f6+cnlD4ef3u5/uFh9czT/Yl9zblVdWNRPDNLjhZEnC0MXj/p2JDWmMd72VOXOdPXGYImuMXOimDBRTJRWMsUC5nAxqZoc1VdI6i+i5ifB6HDfLCSklBRbRkUVpsbl4KIy0SHZCdD8ZFhLZlITK6GCEluVFl+CDeXGAooTgD2ZccpqqraGrKki6KoJWgFOJ8BqKpJ1/GR9FUZfg9XX4heaqI+b6LP1NF0dXVGTPlPDllazRVUZQgG7v4QxUJ41Vl0wXFPYVcZpKWQ15bMa8xildCw7MSIrGc7FRnOSIzORIVmo0CxUKBsJzUTB2AlhmcnwLFwcNzUpn07KZaQR0Oi4SDgOQy4qaR4cUUtmVv92mTP/dUDNbyrmLHK9SaY1/V3CJFGZxUqzSGGenjFPyswTUtO41DhqlzANTZnb+5dqWrSlAmlR2fQ9jcas1Vi+xqxRm9Qqe1Rqs0pj1umNa2uWs5ODyx/Ob98f3L6xvj1+/MY2+3JH/cyqer6pemaUnC2OPl0Yfrk4eKZr2xVX7Yqqd0U15jH+ozauqIw0WoATFqcKSyndXEw3FzfTnN9fRC3Bh+clQYsJcF5qLDc8m1wyAAAgAElEQVQ5Mjs5MgcXw0mG52Ii87Hh9azkGia6ghLLp8QWJAbnxvtXEWAjuYnaGqq+iqStwOorsNqyJDUvUVmCUvLi1eUojSBhthr7qJ40X0/RVZM1VRRVDVNexZBXZ0iqM0ZLGZ25qa1cclcxa6Aqv78yv60kqy6HIWCTiqhJmclRWclR2ZgoNiqUEROYiQq1/0qJ4dmJEdlJkRxMFAeH4KYguWQMl0pkElJoKfgsVk5ldc/45JxcbbAX4msn7LV4ZFXM2Wsh037DMErUJonaJFaZREq7xJTcNCkzTsiM9lqIjYOThvb+hZpmNU8wXVw+eU+nNeq0Jp3GqNUYtOoNjcoelWpdrd1YWjLvbO++fnH66eOTL5e2mxfG17bZN3v6l1b1c4vqhWXm6cb0+cLw+aP+F4v93955diBr2BHVWoVVa33FmnrWVGnqSAFuIA/bloGeEqRrO0s7uPiOHEJ3HqmBlVyEhWehwzITIzMT4Yz4UEZsCD0msIQYV5GWkPf1Mj87HsTDBPdxk8WlRG0lWV2KkefFyXJj7MmLleUj5IVxqlKkVpA4X5syW0PQCPDyUoyMh5OVpYp5qfIqhqIuc7yM3srG8tNQlenYtiJ2Zxm3tTirPi9dkEkpZaTkEpDsJHhWMjw9DkaKAFLhIFp0IC02mIUOz8UiCgnxBURkTko8CxOXjkWnE/FZtLTSIn5ru1AsW1Z+W9ezm5pHW98klPOb/yphlKiNYpVRpDRNz5j+WWJ4emNAuN7a+6imScXjT/EqJu7pdQa9zqDTGnTaDa3GHo16Xa1e1c2uG43bJydH79+efb46+/nK9uml8c2+/s227pVZ/cKkeGaUnK8Kzx8Pns/3Xsx1XujbzzQtx4qmXUmddap6vb9kriVbXkUXlhB6OIltbKSmrWBhsHKsgjldwxkvZ9XYb9YgjOhAWnQwIQySFOyfAAEgAzzpiNBCAioPE12Ii8pBBVaToqdK0zTVTH0VRVWSLOXEiDMjpdxoeWG8iofW8zHz1bj5WvxcTYqyPFlUgJzMiZ/MRwvzEsdyE6dKUsUV9OEicgsbw09DldOT6rlp9XnM2hxmDZfJZ5NL6HgOPo4SE0RFBFNjAkkRAZRIECkiABfqT0FAOZiYglRUQSoyj4hiY+KZyUgGActlMqsEDb39UpliTak1/W/T6euAMkrUhr9LGKcVxn+WGJpa7xtdaemaq25UlvInS/nCe7P6Db3Onr+frOu0azrd2uKScW//4MXL85vLJ5+vjn+63Pvp7eb7g/nXVu0rk+a5QfZkdeJ0Yfhsvv/JbPeZtvVwpn5PUmWT1h0pWw4VzeaRsoX2HH1zlqKWNVZCHOeR10ar18ZrdZ08aUPOYAG1iojIjAaToABMoA8S6I3w90H4+4R6uMQH+FKiQjlJUUX42NyEkAYaSs5n6mpZ2gqSojBRmh0jy46ayY1VliTMCnDzNYS5mhRdFU5ZnjiZFzPEjhzJRkwXJkl5eFFxykRhykg+vjsb08hKrGIkCtKxVRmpFRnEUiahNJ1UlIbnpCDTE+DESDAxEkSJhqQhgljoMHZCZGp0cGpMcFoslIUKz8ZEZWNj2Ji4dAyKkYLNZ7ObGzuHR9VKjVGlt3ybTspZi3LWopi1X8VKtQap1iDTGqWa/y5hmJRtfJtOQ5PrvcNLLR3a6np5KX/ibxKzs4ZZvWFWZ5jVbszpjY90xoW5davJ/PSJ7e0PxzdXx3eXh18uD379eHR1tv58U/3UIH22NvVsWXixMHSm7zzTtj3Vtx4pajcneDuSyjNd2xN9x6G0wTRQsmB/kVaWpp6lb+EYR/jrwxWPOgtlNazhAkIrE1WGi0yPDsIE+Yd7ewS5u4NcXX0ePvR1dAz29koOD6UiIhgxwXV0tLicKisnyEoSxflxk5xoe7LhIm7UTBFSU5akqcCqyzEzpUnjObGD7KiR7LjpQqyERxKV2F8b1cNJrqPHlxLh+diIHAyci4niYKJzCSgeI6WEnsIloDIxMaQoCBkOoUQHstHhObiYzMQIOjKcigghRYLIkQGM2GBmfAgrITo9GcnCp/Cyc7ta+ycm9Rq9WTO3qZnfVOpNCr1JOWtSzJrkeuM3iW8MYtWGWGUQKY0i5bdOGCflhkmZaUJsHhEaegaXmlrVlbXSUr6wXPC1Ezq9Uasz6bXGWa1xXmNY0Bo3FjbOdjffvdq/er//6cr26ergx8vjny/Pfny99+548ZlJ9GxF+GJx5Nmj/gt926my/kRRfaqqOpRX2uSCQ1XtqbrhTN6wJ+SvduY8bmYvtmevducZ+ovWegrmm7JU1fTpMtJoMamLS+SlosnR4VAPT9c/PnD+zsH5gZPzQycPFw+Aqw/MxzcxEFBJjR8rwU0UIIV50RN50eN5MSOcqMH0kBFG8DgrdCILPp0TKy1MUJTiZaX46SLMRD5mshA/koPry0puZsTXM+LLSNF5mLBMNJSNgmXEw9IR0AxURG5qQjENV0jF5JMSGMhQHAyACfZODQfSY4LSosDMuLD0uDAGIpgGB1MigKSIgLS4MGYiMotIqsznDXSNTYvntbNm9Zw9Cp1BoTd+k5iZNcp0G1KNQaI2fGX4m8S04m8S9gEltUxMW0fGTd19iw3NKkG1uIwvrKicuKfVGtUak1Jl0KhNOrVRr1hd0Bqsa5svTvau3h7dfjy4uz74dHXw+fL4y4fTX94d3j4zPN+UPl0ZezLbc6ppfaJpPpZV7U4UH4p556rq4xnBrqh0Z6r0YFqwO16+1s193MJa6eAY+ws2+gqWOri6euaMgCIV0EaKKE0sbEEKioqIgnr5OP3nfafvnNwc3V0d3dycPdwd3IEubiiIbwUlvpuDHMyCD2aGjGaHC7nwIXZoXxqkjwzqTgV2EPy7yJDB9HAhN15cjBMV44c56N6MuHYmsoESU5IMK8aGFqZEZCfBmPGBrHgoMxZKgwfSEbCMpOgcIjqHiObg42hxMEywDxrslgh2J4QA6DFffwAZwUmCZyJDyRHAlFA/cjSMjo7nkql1JYKRvmmJ9LFdYtb0P0pI1Bv/kBApN6YVBvuSmDFMyY2TMuOkxCycsg6Nrnf2PKprnBFUT5fxhfyqyXsqlWlGYZTLDQqFQT2zrlesrj3aPLLa3j09vvt49unS9ulq7/bS9k3i86v9d8dL5wbRyXzvrrh6S1h2IKqwTZXsjOXujucciUvOlfwDMc80kG0ZyLEOF2z0cJbt79jKNQ8WmgYKVrq4mtq04TzUYB6mLi2egwplo6KJcDjE3dv5Dw6O3zm7O3t5uPl4eQAAHgFBvgHJYVAeGdnCiu3JiOhnwQbSg/po4DaCbyPGozHJqz7Bowbp3oTz72OEj3ORkpIUSUnqMDepmxXfSIvnE6LYiID0mAB2AoyBDEqFA4nhQGJ4ACkcTI2B0ZHhGckxGckxTHQEOToQBwMkBXomgN0IIQBWfAgpDESLCuYkwXMwUQxEYGoEiBQTSktA5tFYjRV1Y0MSuWJZO2tW6gyqWZNSb/y3Tnxrg0i5LlKuTys2pmY27AwzhkmZwX4VKzGNT5oGhlfbOmdr6mUVlZPlgnFB9eQ9udwss8cok67LJUtz6rXN9d2Lg5OrV2c/XT/58froy+3B55ujz5cnn9+dfH5j+3C2drQ2eaDt2JdUH0gqnyiqL2YE55KSw8m8A2HOuYx3LCo297PX2pnmnixzX7axj2MZzFvv4az1cBc7suSVxI70iFpSZEFiGD0qiBYDx0bAIR7+Tn9w/P7/PHR28PBy9/PzAQG8IVC/ICQ0kIuL6czBCkuw4mK0kBPZSwloxXm14QEdqZBGrF9FrGtFvEdzavBgNnKIm9Rvfzo4vp0ZX0tF8lKi0yL9U0J9CJF+2DBfdJBnQpB3UpBvcrAfITKQgoAx0JHpiVG0+FByVCAW6psAcUcHuGICPYihAGygdwrUjx4TxEaF0mICU+EQMiKCnpRQyOK01bROjSkUqjXtrFmh3VDqjapZ0/8mMa1Ym1asf5OYlG9MSA0TUoNQbBybMPYNLrW0a6tqxeUCYblgvKp26p5YYhFLLBKpWSxelUkWFmfXbZu2N2fnP769+O326S93pz/fHX75dPz58vT2h+Mv709+/GH3zCzdUTbbpNWHUsETZdUzRcVTWcn5dIFtJOtgNHtvJGujgzpfg19qIm90MC292cZezuMW5uNWlq6BPlWKaaaFFiUEMuCQRJBPPDAABY2MDoQDXAMe/tH1wXfu7i4AP58gEDAMCgqNhIBpqMj+Usaj7qKV7hxdJXGcHd5HhXSQAltSgxvwEEGiXzUW0poW1ZEeX0+B8/GhFfiwytRoXkocJwGOCwEgQe4IkFsU0DkS4Bzt7x4f4B0f4JUYDCBGBdGQ4WnxYUQ4BBfilxTohQpwRQKdkX5Ocb4OCUC3BH9XPNSbFO5HigSlwgMJ0WFpiYnFnMLOpl7RtE6l2dDoTd8kvnVCoTfO6I1yvUGqXf9HJ6YVa1Mza5Py9Un5xqR8QyixZ1y0MTK+0dP/uKlVVVkzXcYfKxeM19SL7k2KLZNiy5TIKBavqGaWN5aNZ7aDjy8ufvn47M83T377fPLzp4Mfbw7uPp58enfy49vjL29tr23608e9R8r6bfvXYUsvZsrPxYUnwpzdgfSdAdZ2f/pKI0FTilKXohZqCabuzJVWpraG/Kg5XVlFGitIrCfBOLEgYggYHQBAACFIWHRiFDYahvb1hD78zvPhdx7uLkB//7BgcHhkEJSaEDNaW2gWtW1P1i+1cyWFyaPs6H4WooOBaCSH16aG1ZEjG2ix9bT4UnwEJx6cEQNkxwfREDBcSAAC6BHp5xoGcAnxdYJ5O4Z6O0f5eUT7eyKAHrhw0DcJUnQQBuabAPZAgVyTIB64YG881BsL8UoKcMcGeuKhXsSIAAoClhIdRk3ElOWXdbcNS8Xzaq1BrTOq9EY7w9eNPaMzyHUbUu26VLsuUW+IVRsi5frUzOq/SYyJ1kan1odGVzp75uqb5PyqiTL+aEXVeF2T5N6EyDoh2pycNojFSzrN8u7m1quL45vXZ79ePv3L7fmfP5/88ungy1eJu/enn9+efH5re3M4/2R1+FBZbxkvso7m7Qlzt4fY1l6GqYOy3pK60UZeqk9RFcdNZ0WoStArTfTZqlRlBUFbmzaen9TOiBTgg9gxkASQf3wACBkUgQyNx8SRkuMosXBCICjK0x3i5Q4JAIZDg6Ojw+CU5ITuqiLtQP3jgSpNU66kjKoQMNX1HGEZoy0LU0dDVVLieISvt4HJkdQocBLEIwHiGQv0ivR1D/F2hfq4QrydwZ6OYA/HQE+nEG+3cB/3aD+PJJgfAR5ov2+ICsSFAJICvRIDPVJCAAxEUCY6NBMZzogOTosEpYYBCOFAcgyMgozJJFNrKxqG+qZn5Mv/LxISzZpY9W1DrE3NrE7KVydkaxOy9QnZulCyMSZaG5lcHRxZau/S1jZIygXjZYJRfrWwvllyTyjaFIrME1PrEunSwuP1k4O996+O796d/Pnq6e+3Z3+5O/7188FPt4efL08/f3jy+f3p53cHb0+XztfG9hS1RmGxYYhrGmCbepnmHsZaS+psZaKuIkHDQyryEJMZYRMZEfJCtCgfPZGDmirEdtCiKjGBxegAJhwSC/CL8QcnRSAx0TgcioZBMeJjyJFhyYHgKIA3LCAgAgZDIOBxOGR8HoPUyuMMC3LG+VmT5Rnq+oKFvmppU0lbLplPSygmxefiYzKTIunIMEJUUHygT7iPK8TVEeLmFOjlGujjDvJyDfB0AXm5BHq5wbw9wnw8EUDvJJhfIhSQEOyLDw/Ah/nbpxPINQHklgLzSQ0DZKLC2fFhrDgYAxFIjAQR4FBqAjIvPbOlrnN0eEahXFP9ayfshdBuyLTrdgb1qki59nVXr03KVyZk/1diXLw+Or06PLHSP7TQ2qGurpsu44+W8kcENV8lxkSbYyKTcHpNrTVsWnafXxxevj366fL09+tvEke/fj745e74y/X5T9fPv3x88uXD8cen6y+3JE8Wus/m2k7VdYeS0r3xPOsge7WZpOUnzJTESXKjxOxwIQPWRwzoIwf108I6SCF96bGtlKgqLCwP4UcJCUgKDokDw1Ah8bg4Eh6djktkJyek4zEZ2CR6bAzOxSXA0dHXy9Mf4g+EB0IwUSGZ2Li6TPJwGVfWUDrTKhiqzK/KIGZjYmjxYcRoaFIYOBYCiIEAwgAeQJeHnt9/5/ngvq+zk5+7C8Dd2d/LJRDgGQzwDvH1CvfziQX7JocCk0P840Ae6EAvDNQnEeIZD3SO93NC2uOQDHLHB3mTwvwZsUFpCCghCkpLTijNKehqG5oQapRqw/+nxNcNsfpVYkUoXRVK14TStb9LLPcOPGpqVQiqJ0r5w6X84cpaYWOr9N6Y2DgmMkxIVh8tWo+OTn54fXzz4fiXm9O/3pz/fnvyl7uD3+5sv94d/XJ7/uunZz9fP/np8uT6peXVrurJ8tDFYu+JpsE6XmAZzDL3shbqCeoytKIYKcmNnmaHj9KhvURwLym4hxLSR4/uTY9rJEXWk6IEKfB8bHxZekY2IQ0TmZSKolGw2SQcl5paQEnNI+Azk5NooeFoV1c/hwdunq5eQC/vMKBfFMgXFwbJwcTXZ1Ba81m1HHohFUuNj0yAgeABPkGebv4uzt6Oju4PHrp+/8Dt+/vu9x94Ozn7urn5uLn6eboF+npDAd6hAM9wP0+4nwcq0A8TAor2c4vwfhgNcED4OcZ8PcYBnZEBzmg/5wQ/l2SQOwUOoceGEqNDmXgcv6isv2diampOpTWqtBsq3YZSb1DoDDPaDXshNOsyzZpEvSpWrU4rVr9uiH+RGJes2pfE9OqQcKlnYK6hRcavGi/lD5XyB6vqJprapPcmxWuT4iWJfGl9Y/v8/Pz9D2efr89/vTv+7db2+53tr59tf/28//vd/l9uD/58e/zL7fmX6/O7D8cfLgzPrYrztbF9VaN1smh3PHd3OGulkSjLi57OipTnx01mRw0xQscy4F1kaCMO3EQIqcIEV6dGNjDia5mJDVyGZmxsUaaszuczcCxWaj6bVpadUc2g8fApXByOjU5MDY+I9fIAOt139XBwD3D3gfkCogP8E6AgYjSMiYnlUrGFLEpxBp1LpaQl4xPgKCgowscj0MUZ5Ojk7+bs7ebk6ePh5+8V4O/u5+/mE+DuYZ9Ovi6hAKcQL+dITy+Ev1+kjyvM/ftg9/8M9vgPmPcfgjz/A+r9xxiwawLQHRPgRQoBpYYFpYRCU6OjOFRmdVldf79ELFtR6oyq2TXV7LpSvzajXZVr7JGpV2XqNYlqVaL6G8M3jKmZtamZDXshJKvjYrvEwPij9h5FbeNEeeVgKX+gTGCXaG6X31MoVuUzSxrNin00PT2/emv/W//66fi3T/t/udv/62fbf33e/69P+7/f2v7y6eiX2zO7xOXZ3buD96fLz63yk8e9NkW1TVRk6mHMVSXpyhPVJQmiHMRgetgIO2okI6oFD27EQcrjAcWxfjWp8PZsXE9R2nRb1c7ioxd7+5sLG0NtQ9m04rys6nxOfU52HY1WisVlJWNp6AQiPAIdAIA6fefm+dAd4u4TBgBEAn0QYN+EUBAxPpyVklCUThPk5FTmFpZkFWTRuUQ8ExGDDw1FQUBhAf4woB8U4h8S5B8SCICCvYEgTy+wpyvI3RHs6hjm6RYJ8Azxcgh0+0OQ+x+gnn+AuP0HyOU/gj3vw/3cUf7uaIArIRiYGh6MDw0mxSLy0zPrK5uGhmRSxapy9t8lZOoVqWpVqlqVKFfEypXpmZWvu3plUr4yKV+dlK/bGb52YmRqpX9srq1bXtM4XiYY4FX0f5No6Zi5tzC3/nhubXVx43DP9vb5xd37i1+vn/x2c/zrJ9tfPh/8/vnwr3e2//pk+/3T0Z9vj3++Pf1ye353c/Hl+snt6613JwvPTFNH+hazsGChnTpbg19uJK80UNRlmBF2VC8trJMEa8SAO8gRtVhoKQpUTYS3ZmInqrnL4sGnu6Z3p8cfnr442Toa6prkF7XweR2lxR3ZmTUUciEGl4FJZmKSmSgEERYQ5fInDx8Hz2AvQIiPV6iPOxzokRAKpCAjs1IS86mpxQxmCSurlFNQwi0uzOEV5JZyuUXpTG5iAikOgYuOTIqJTISHxoUHw0NAsABPP383V6iXC9THOcjrQZDH9zDvhxF+LqFeThG+7ogAQBzQHwX0Qvu5EkKAadEh1Dg4PQldzOE217eNjsllqmXl7Ma/deKrhB3j3yQmZMtCqX1PfJOwj6aJpZ5hXXOHpLJupJTf/02itnG6rUt5z7q6blld3zEanx3ZLl+e//j+4s9XF79cHv96e/Tnu6Pf747+enf410+Hf749/PXm8Mv1yefrs7vri0+X57fvDi9fWN4ez56vDVvE/JWB7PlmiqYar+FjZkqTe9Ph9ThQdSKwDOFTHuvHR0MqsSGt6QltWdjJmlyzRvjD6dbl85PLl8+uX7892joRj6sqStoqeJ2V/P4cTj2ZXITDcLBJmQRsdkoiCx6M9rzv7fyfDyAeXjBfn1Af94QQfyoyko1BZuMSOXhMFhaTS6UUpqdX5OXX8QV9/YOj41Nd3UM1Ne0cThmFzMElM5PQVCSCGBocH+ALCvBwAXo4gj0doT4uEUCPWAggDuyHCgShIJBYP78EsA8a5I6BAYjwQEYCIpOALc/P72jpEE7OyFSLCvto+pfpJFUtS5QrdgbFskixPD1jb8NXhqVxyfK4ZGVMbM/X0bTQOaBpaJ0W1A7zKvp4Ff3llUP1zeLOXs29Y/PagXnteMv4+mz/5tXZl3cXv328+OX9ya+3J7/dnfzl7uT3u+PfPx3/en3w09XB3eXRp8vT2+uLm6unt5fnN+8O7t5uXZ49Ol8f3lLUaloZ40XxwsJ4WRluNDepBhdUEOWZEfSQE+pWjQ1roaMH8ikdXOJMe/nhquLdE+vN69Pr1xfXb97c/HB5svtkbFDeUDNYWzlYWdGXm9NCT6vAJ+fikjgpSRwyNjsuPBng7OfyR0d/F88If9+kUDA1Ds5ARqcjYzJQCBY6lpOSlEdJqchmNZYXj40O6ud1C8tLj5ZW5cq5gSFxXV1vYWEji8VPwXNjorGhsDAIEAT2BQQBfEP9ADFgYBwEiA4CJQWDk4JBCUE+SLAHIsAtNsCDEBOaScZXlRb3dvdMipUz2iXl3Jpq7v+vxJh4aUy8/HeJlf6xx+19qvrmKX7NUMnfJRpbpd39untPd9fOd9Yu9o1vL2y3b85/fPf0p3cXP3+8+Pn2/Oeb099uz/7y6fQvt8e/XB/8eHX46fL49vL05vri+vrZzdWzm6uzz5eHn99ZP57Nn62PLIzxhHy8qIo428FRNmYN5GJL0CBupDcvIaieEteTk9qQniygoeaGm57vLLx7tnX95vD27cXtuxefPnz49OH2cOd8WqhprhtqbRRWCYazs5pJxFICtiAlKZeWWpxOLkxEEAFuILfv3UHunnGBAYSocEJkSEp4MD0WnpEQw8Uji2nY+oL0zuqCifE2tXZyaVltMC2ZLMbVDaNubmVSrG/rEpXxe9hZghQiOxaBjwiJDw2KCAUFhYNBsUEBKCgwMQSIiwQlhwFRwb4IsFeErzMqFJSeiq3hlw/1D4lkaoV+WTm3ppxdVerXFLpVuWZFpl6RKJfEimV7IWaWpmeWJmVLfy/E4j9LjEwt947Mt/Uqapsmyir7v0nwq0ea2mRdfdp7L2xrzw42Xp5aP746/vz+2ZePL798fPHT1fOfb5/+cnvx26eLP386/+3m5Oerox+vju+uTm+vzq6vn1xdPbu+enZ7fXF7ffLpcv/TW8vV8+VXe4rj5aE9XYdJ2rg8Xiuuz66jx1ekRFaTEG3ZKdO1ea15lMacVJNq5M2x4cOLvesfjm7fnX96/+z2w+u7q483H25PbE9VssddrcLmpimBYJiT3UKj8ilEHjmliEEtZaWV4BOZgX4RXg4eIHfPmMCg5PAwbHgIOTqclYDIxCJySaiKLEJdCX1sqFSlbFlaHN0wSI1mrWVz0bRpWDeZ55eMEsXjvhFFbfNYXlEzjV6UlEiNjkRGwsLgQWAEFIgOD8BEgbBRwYnhkHgoMAzgHh0ETMMn1wgqhgdHJTO6Gf2yYnZVoV9R6FZntCsy9fLX0fTvEkLp0rhk8WvsnRgV2fN1Scy1dMurG8bLKvt5FX2l/IHK2rGWjhm7xOsjw5snWx9eH918fPrj7Q8/3X348eb95+s3P92++Pn2+W93z3/7dPHL1cmXq+PP9kKcXF+eXl09ubq8uLm8uLl+cn19dn11dP1x7+bD9t07691r44eT+dN10ZZ+WNrJa80jtueThysyxc0li8L2yVaeqIt/ZtK+u7B+fH148+709v35p48Xd1cvP1+//fH2+vbj7antiV611Nsja2gUlpR0ZWc1pjOq6ZQKGqmMzazksKsImEwYJNrT2dvXxSsSFISBR1GRsWnIaGZSVBYBUZaFb66gicdy5jX8lYVGw1q3xTxusYjNm+rNnUXLtmnNuKFf2pDq1oantK3dUzx+K4tdhMNS4qLjYuGRaEQkKiokPiwoFgaODgRCfT0iIQFUPLamsnJkZEKimJPrVmTaZbl2Sa5ZlmuW/0eJib8zjIkXxsSLo6Kl4anF4anFgfGFzgFdo31dj/L4vbyKvjLBYHW9sK1L2TOgv/fDufXDm8Obq2e3t68/3b399Pnj7aePN1dvP1+//HL1/NdPL+3/kb06/fHq5LOd4eTq49nl5cX1x/Obj+c310+ubs8vb04/Xh1fXR/dXNpu3u18frd9+8py9XTj3KLZnp84XJY9NWpP15UXZr1BK7Q8mn55sPru2c7HNyfX785v3p/eXT75fP38x9vXP3368NPt9e2H6+dnr/R6w+CQorZuuMOXmQYAABBiSURBVKysJ8uOUcNIq2QxarLZDZms6lQiNwQa5+Hi7+3sGwYKxsZEk5AxTCwim4ysKqQOtmQvqPMsKzzzSpl5VWA1Ne9sD2xvT1i3ZZs7epN1ftmypDesqVZWZXPL41JdZ/80v7qTnVWampqRgE6Fh8fCg6ERYGAY0C/Y1ycuLDSDSm2sbRwfE0mVj2XaValmWapelKmXZOolqWpJorTnn6eT8GsbvjIsjIoWR6YXhyYXhiYX+kYftfdp6ttE/JrhkooeHr+vvHKormmqs1fTOzh77/LV0d31i7u7Nx9vXv7w8cXbj2/efvzh3buXV++f3n18+vPNi19un365PP3x8uTu48n1x28S59cfT24/ntxcn13dPLm8OX9/ffrh+uT9x8OPH2w3l4e37/Y+v9//8n7/8+vdL29sP73av3u+fft8++XB6lPb0g8Xlg8vbR/fnF69Pb16e3Lz4fTu5umPty9+unv3893lL58/3X68OT179WjBMjKqavx/+rLPrzbuNYHj/if27Is9e3PTnbgkTj+5N+U68Y0DxmBML6KIYroxHURR12jUewdJVAPGNrhh1EAgCVCbLo0qGGLvX7E7EPtks+Wc76t5OZ/z/H56ND2CurqRstK+opt3Cm90FxXeKSnuKS7pvJpT/fnnP7/1b2f//V/+cvGd93/84lL+5W9Kcv5WX/ZTz62rJknuiq1oba7ywRxtbbl5deX2/ZWhlRXm8opwYVFsWZAoZxXKWZ1u3qabmVdaFkDlzAhT29rBLynruXKl6ruvv//i3IXz77579q23v/viq8qi0oHeYaFQJdfYThbpGZnGKtfaT/uzhHIakNkEMjslIbHyxDauyM4W2ljA1BjXMjCq7ewTNbWx6poY9FvjzW2c7j7Jf13XE5zJM3jYnYjtoXhgL7S1s7vp29327e7s+DZ3/e7I3iYB+ROoLw65Y9Tl7EQiTijigiJOOLIBR9cR2IEgLhhxQbDzJAcCO1B4Awo9xSLP8MhzLLSOBZ9hwXXI/xgOPI34HwV9a5Hdp+HAs3BgI7rngINOJOzGoa0Y4oujARINJvFoDI1EINi5uWOdXhYIdb39QFPTRGX5YHFhf3HhUPnNkYqywdLS2/nXG//29bX3/3rprX999/y7H/7896/L8n/qbL7JHa+eN5c+XaxYX6x4Ml/+eL7i8ULN48Vbj+51Pbg3sHh3yGwflhpGQN240io1zFuNd5f0cw+llntcxXQvU91wm11Y1vzTlcKvvr786Sff/vNyXn1NC2OYIxLrFZTEjEI/I9faFFq7QmuXa+wy1bRMNS1V2qVKu0QxLZFPCyVWQGIViKf4IiqeyMoRWtmCqXG2qW9Y1d4NNLVM1DWM1DeNtXTwegZkoyzzOHfyTALxpsh9HN/d3fdsbju92+7t7S2Px+l0rQcCHhTykWiARLxx2BOD3FjEhURccMQJRykJFN5AEQcKOxB4403UQ+j3EMiBRB1I1AlHHEjUhSObBOolUC8W9SAhaiCgfSca9uDRLQLaIdFACg+miXCCCMN4NAiF1p2umfl7Yol5aFByq5FTUzVRVcqqLGJXlY1Vlg9UlvUV3+j86YeyTz7+/r23zl04e+7nH79pbS6WCtvv2msfLdKeLFQ8Xyh1LpQ4Fkodi1XrS/WrS01LC802W7ta3S6UtIpUQ8opsXrWqF2cVS0sKOYWwakZpsrUy9M09PBL6X15NxtLy1vbO4YnJsRSuVmptSn0dqXOTpFobHK1Va6yypR2qcIukdskcptYZhfL7JSEeAoQTQnA06w8YIrDnxxnGfoH5e2dvMbmsfqGkfrGsbYuQe+gfIxjoSSyMf9BOpIgQ+HIzo7PteV1ut2O9fXHT5+t7gY8GOQnUX8K95MnezUedWFRJxJ1Ua8Yeo7CGxglsfF/5EBhJwa7cMSDwW4C3SIJX4rcTSf2MuReivDHES8e9eDRTTzqxSLeGOxLoHtpIpSKhzEihGDh/dC+27Nzd2FNqZhhjKhbW4C6Gm51BZtWzayuYtCqGbSqkdKi7l+v0C5d/PHtv3zw8dkPCm/8kzFUb9bXL8/SV+doj+dK1+dvbNwtdCyXPL9XubZce2+hbm660axvlErqQFmrRDcstQhUMzrV3KR6YU49tyC3z4GWRabCNsBVd/TxOu5MDI4APIFarpxSam3y09RWudoqU03JlFNShVUin5LIrWIZlUhqE4qnhJTEJABOCYSTAuEUTzDJ4ZnHJvS9/dLWdk5j8xi9kdHQPN5+G+gbUvwucUAGDtORTAqKxUIQvBcM+b1e17Nna+vPH+3vbRFIIIkF0kQgiW6RCDUWOOTGIA9ObdoOAnHgsAODNv4UNRMUz58lEjF/OrGXTQUP06EX2dCLTDiT3E8QAQLdwSAvDvtiaCBB7KfioQQZIfAwBAVDoZDbubO89Eylmh8f13V0iurp7JpaFq1mvKpqrKpyrKJipLSkLzen7tNPf3j7r2fPnf84J/dH1kSFQduwYKevzFaszRc8Xcx7fi//+f3iJ/fLV5eqVuZo85M0g7pCoaiWq1vl+gG5mSufFMusKplVJ7WapPY50eSc0GDnyE0soZoHasUys0w1dfr2papJqdIiVVokCotYbhbLLGLZpEg6KZJOgZJJUDIJiMyAyCwALQLQwgeouHwTi2NkjKm7e0TNLSx6I4PeyGhsYXb1iAZGVK9ngvBlyWA6GU4movF4lCCi4XBgZ9vp9ToiIW8M203HdtP4Tgqj1gvqjILdBOwhEHcMccYQJwE7cGrP+G9hryXenE444onj28l4gBqI5H42tX+YCR0dRI4OIgfpUDqxn4zvJYg9Et87lcgkIsl4BEf2ETgSCoY9Ht/i0lON/i6To++4A9BvcWrr2bRadjWNikZjlpX1/3K15rMvr7zz/vmz584Vl1weGizVqurtlsrF6fwH878+Wsp5unL9yUrRo+WSB/MlS7ab08ZCo6ZIo6lSaZvlujsyw4hIzxTpuGKjGLDoALMZMJmFerNQZQKVZqlqkpqAkyQKi0RhlijMYrlJJDvNDErNoMQiFJuFYstrCdOJhJknMHN4RiZbP8xQdnUDjc3j9Q0j9EZGUyvrdq94kKH+XSKFbKVjgVQiSJKheDxEkpF4LILAe6HQDgr5k8R+NhZIYVtpbCuFbSYQTxzxxFFPDHHHTyRiiPNPDPjJiKDwxskJ5oAiG1B4A4Vcp6dTIuY/8dhNJwOZ1O5BZv9FNnJ8CL04gA4y0UwynCbD6UQwHdvLkkES3yfQEAKHg6GQ07O99OCZxjQ3xlV09QqbW4V1DbzqGm5lNaeKxqmsZpVWDOUVtn357bUPz39z7sL5a3k/Dg6VSsWVJn3BjPXX5bmrDxdzHy0VrC3fXFsoWJ3Ju2fLm7XkWw1FJkOlTkdXattARTtP0smT903Ix8eVXJYaBHQqid4o0ZlFaotYaT4xsJwAGEQyAyg9zQhKjaDECEpMQrEJEJkEoFEAGvlCI19o4gtNXIGJzTNMsLSDw/KOLl5DE+NUormN3d0nGRrVjLLNYxzLmXjYlcJ9KXKPjO/HyWCc2I/hexiyC0f9JBFMx4IZwp/BtzPYZgb1pFBPAt0kqeFwxRHnm2Kwg4A23kTNBDUW1OmEQE4k6iTQzRjmJQlfMh5IkbupRCCV9KdTgWxm//AgdPQienwEH79Ajw6Rwyx0mIkeJkMHiVCaDJNECMNCKBrdCwWdm96lh481JjtboL/TL29sEdTS+TV1guoafnUtr6qWU05j5OS3/P0fpR+d//bDj87nXf+h6/Z1oaBAp7luM+cs2PPuzRfcv3tz9W7B2nzuw9lry7a8+cn8aXPxlLHSoK1RKOtE0nqBpGkMbGeA3WPiIY6cA2oUIo1OpDKACiMoM4hlBpFMD0p1oFQnlOhfZxBKDEKJERAZBaCBL9S/jsLgCoxsnn5sQt3bD7a2M+mNw/UNI43NY60d3N5BOWNCP8oyjbLNZ7C99Ri0Gcd9JBGIx3Zj+C6B+jHIh0L+BBHMxIIZ3JfFvVmUkkhTEm5KAvl/JaLPkeg6QmH8fmMT6CaBbsXxHZLwUWNB+siEj0z6kulAOrufPQwdvAgfHSFHx8jRMXp8hL48hI8PoIN0NEVGCCJMxGAUg0KR8NbOzoO1x5apJQC09g8o2tpEjU1gTR1AqwVq6EBtA6+iZrSwtOcfl6svfnL5/IVL333/eXPzVRazUCYuMOpuzFhvztsLl6av35/LfTB37cFs3v2ZgpXpokVr2ayl3KIrVytLpdIyrrCaya8b47UwgR6ulA0oJIBcKZCqAKlKSKUWSjWAWCMQqfmgmg9qBCKtQKQTiHR8UMsTargCDVegfZ2OzdMzOVrGuOJOH3Crdby+YaiOPvxGYmRcx2AaGSzTGWj7MRp0ErA3TvjImD+OU/cnCu1gcCAZC2XjwSy+c4BvHaCeLOpKo64k6k6czgTsjL/uZAOn/g45Df+DBI64TxgoiRi2Hcd34sQOGd+Ok9vxxHYi5U9n97KHwexh6MURfPwb+vIV/uoV8R8viZfH2NEhmk1DJBklYlFq30Mi4fD+5tbm6uq6xbzM4xn7emVtrSJ6A1BTJ6DV8ml13Op6VkX1aFFR788/1V68ePnjjy599/1XtOorjOFCubTMoCuaNN2YseXP2/OWZvLuz+avzt14NHdzdbbknr1kzlI8qSvUKW9KxSWAoJzDrWHxWjjgoEDK5UnFXImYJ5HwRVKBWAFIVAKxig8quYCCCyj5oOY0igFQcwVv0nIFOjZPO8FWD4/Kbvfwm1tH6+iDpxJtnbzeQfnwmPZ3ibDnYTTwDIu4CNQbw3cIdBuFNuEI9aspEw8fxPcpCWzrAHX/QcJDws4/FoccsejGm/Do85PTyYkhLhxx44gHRzwEunW6TBCYN0Z4Y/GtGLn1x7F4cQSdSrx8hb98FX/5W+z4CD/IoqkUkiBhAo/iWJTAIDgS8m8H1h5uWEx3AZ5leEDd2SFra5XT6cITCXZ1LZNWxSwvZfz6y61vvrrx0Qdff3bpsxsF33V1XmVxfpXJc/WGPLPpmt1ybcGatzJ9fW0mf20mf3W64L69cGGyYNpQMKku1kjKRPxyPo/OE97hi8c4Yi4L5LNAARsEuKCIB8p5oJwrlHMB+SkGF1BxARVHoGLxFCyegs1XsnlKNk/N5mlYXPUYUzEwLO7s5jTeGqmlD9TRh5tujbd38XsH5UOjmpEJwwjTeCbkfhDxP4GDG0jUjcGbKOSJhhyRoDOG7mbj4UMymMW3KQmMksigrhTiTqLuPzKQsPNPEgS0gSNOHHXh1Ac+NwZTvVnrqOH43yQOjyJHvyG/vcSoXsWPX8aPjmOHh3gmg2WSGElABBohcSiGROFwdMvjX158otcs8jlTg/367i51Y5Oopo5Lq+PU1LHra7i1lZyyIsa1nM4vP8t7752LFy68l5Nzvqv7ew7/ilTxi1abYzbkzJhzF6dy79tyV225a9N5q9P5K7bri5aCWX2xSVYqE5QCvFq+8DZfNMIRsZhCDlPIZQq5LCHAASRcoYwKkHEE8pOUHIGKzVf+Dwk1k0NJ9A8JO26zGpqHa+v7a+uHmlsmOm5Ta90bif8Eq6uXs0VNkJQAAAAASUVORK5CYII=;" vertex="1" parent="1">
          <mxGeometry x="150" y="190" width="131" height="110" as="geometry" />
        </mxCell>
        <mxCell id="JVQxi2c_4xbzTbUvVrrJ-2" value="" style="rounded=0;whiteSpace=wrap;html=1;fillColor=#ffe6cc;strokeColor=#d79b00;gradientColor=none;opacity=60;fontFamily=Comic Sans MS;" vertex="1" parent="1">
          <mxGeometry x="150" y="190" width="130" height="110" as="geometry" />
        </mxCell>
        <mxCell id="JVQxi2c_4xbzTbUvVrrJ-4" value="&lt;font face=&quot;Comic Sans MS&quot;&gt;&lt;b&gt;Start frame&lt;/b&gt;&lt;/font&gt;" style="text;html=1;align=center;verticalAlign=middle;resizable=0;points=[];autosize=1;strokeColor=none;fillColor=none;" vertex="1" parent="1">
          <mxGeometry x="160" y="308" width="100" height="30" as="geometry" />
        </mxCell>
        <mxCell id="JVQxi2c_4xbzTbUvVrrJ-5" value="Text" style="text;html=1;align=center;verticalAlign=middle;resizable=0;points=[];autosize=1;strokeColor=none;fillColor=none;" vertex="1" parent="1">
          <mxGeometry x="365" y="288" width="50" height="30" as="geometry" />
        </mxCell>
      </root>
    </mxGraphModel>
  </diagram>
</mxfile>
